<svg id="Layer_1" data-name="Layer 1" xmlns="http://www.w3.org/2000/svg" xmlns:xlink="http://www.w3.org/1999/xlink" viewBox="0 0 512 512"><defs><style>.cls-1{fill:#ffdc65;}.cls-2{fill:#ffda2f;}.cls-3{fill:url(#linear-gradient);}.cls-4{fill:#656666;}.cls-5{fill:#fff;}</style><linearGradient id="linear-gradient" x1="30.26" y1="166.34" x2="624.5" y2="166.34" gradientUnits="userSpaceOnUse"><stop offset="0" stop-color="#fcee21"/><stop offset="0.5" stop-color="#f9be1f"/><stop offset="1" stop-color="#f7931e"/></linearGradient></defs><title>a</title><path class="cls-1" d="M385.55,112.09V220.6a36,36,0,0,1-35.92,36H68.21a36,36,0,0,1-35.93-36V144L6.4,115.2A23.44,23.44,0,0,1,23.79,76.09H349.63A36,36,0,0,1,385.55,112.09Z"/><path class="cls-2" d="M162.86,280.79H488.7a23.43,23.43,0,0,1,17.39,39.11l-25.88,28.77v76.64a36,36,0,0,1-35.93,36H162.86a36,36,0,0,1-35.92-36V316.79A36,36,0,0,1,162.86,280.79Z"/><path class="cls-3" d="M385.55,112.09V220.6a36,36,0,0,1-35.92,36H207.09V76.09H349.63A36,36,0,0,1,385.55,112.09Z"/><path class="cls-4" d="M162.86,280.79H305.4V461.3H162.86a36,36,0,0,1-35.92-36V316.79A36,36,0,0,1,162.86,280.79Z"/><path class="cls-5" d="M319.55,148.66A11.29,11.29,0,0,1,308.26,160H105.92a11.29,11.29,0,1,1,0-22.57H308.26A11.29,11.29,0,0,1,319.55,148.66Z"/><path class="cls-5" d="M272.29,184A11.28,11.28,0,0,1,261,195.31H107.13a11.29,11.29,0,1,1,0-22.57H261A11.28,11.28,0,0,1,272.29,184Z"/><path class="cls-5" d="M284.15,342.08H406.57a11.29,11.29,0,1,1,0,22.57H284.15a11.29,11.29,0,1,1,0-22.57Z"/><path class="cls-5" d="M251.49,377.44H405.36a11.29,11.29,0,1,1,0,22.57H251.49a11.29,11.29,0,1,1,0-22.57Z"/><path class="cls-5" d="M272.86,353.37a11.28,11.28,0,0,1,11.29-11.29H305.4v22.57H284.15A11.28,11.28,0,0,1,272.86,353.37Z"/><path class="cls-5" d="M251.49,377.44H305.4V400H251.49a11.29,11.29,0,1,1,0-22.57Z"/><path class="cls-4" d="M272.29,184A11.28,11.28,0,0,1,261,195.31H207.09V172.74H261A11.28,11.28,0,0,1,272.29,184Z"/><path class="cls-4" d="M319.55,148.66A11.29,11.29,0,0,1,308.26,160H207.09V137.38H308.26A11.29,11.29,0,0,1,319.55,148.66Z"/></svg>