<?xml version="1.0" encoding="utf-8"?>
<!-- Generator: Adobe Illustrator 23.0.6, SVG Export Plug-In . SVG Version: 6.00 Build 0)  -->
<svg version="1.1" id="Layer_1" xmlns="http://www.w3.org/2000/svg" xmlns:xlink="http://www.w3.org/1999/xlink" x="0px" y="0px"
	 viewBox="0 0 512 512" style="enable-background:new 0 0 512 512;" xml:space="preserve">
<style type="text/css">
	.st0{fill:#3A3A3A;}
	.st1{fill:#565656;}
	.st2{fill:#ECF7FD;}
	.st3{fill:#CDE2FF;}
	.st4{fill:#FFDC65;}
	.st5{fill:#FFA64D;}
</style>
<title>icon2</title>
<path class="st0" d="M343.2,391.6H168.8c-5.7,0-10.4-4.7-10.4-10.4c0-14.5,15-29.8,48.8-49.3c22.1-12.8,43.7-22.4,44.6-22.8
	c2.7-1.2,5.7-1.2,8.4,0c0.9,0.4,22.6,10,44.6,22.8c33.8,19.6,48.8,34.8,48.8,49.3C353.6,387,349,391.6,343.2,391.6z"/>
<path class="st1" d="M304.8,331.9c-22-12.8-43.7-22.4-44.6-22.8c-1.3-0.6-2.8-0.9-4.2-0.9v83.4h87.3c5.7,0,10.4-4.7,10.4-10.4
	C353.6,366.7,338.6,351.5,304.8,331.9L304.8,331.9z"/>
<path class="st0" d="M186,172.5h140L256,256L186,172.5z"/>
<path class="st1" d="M256,256l70-83.5h-70V256z"/>
<path class="st2" d="M271.3,256c15.1-14.3,46.8-46.1,66.1-78.1c10.8-17.9,16.2-33.8,16.2-47.2c0-5.7-4.7-10.3-10.4-10.3H168.8
	c-5.7,0-10.4,4.6-10.4,10.3c0,13.4,5.4,29.2,16.2,47.2c19.2,32,51,63.8,66.1,78.1c-8.5,8-22.2,21.6-36.1,37.8
	c-30.6,35.5-46.1,64.9-46.1,87.5l0,0c0,4.7,3.1,8.8,7.6,10c5.6,1.5,11.3-1.8,12.8-7.3c0.2-0.8,0.4-1.7,0.4-2.6v-0.1
	c0-0.2,1.1-30.1,38.7-51.9c9.6-5.5,19.2-10.5,26.8-14.3c7.1-3.5,15.5-3.5,22.6,0c7.6,3.8,17.3,8.7,26.8,14.3
	c37.7,21.8,38.7,51.7,38.7,51.9c0,5.7,4.7,10.4,10.4,10.4c0.1,0,0.2,0,0.3,0c5.7-0.2,10.1-4.9,10.1-10.6
	c-0.1-22.5-15.6-51.9-46.1-87.2C293.6,277.7,279.8,264.1,271.3,256L271.3,256z M202.9,182.9h106.2c-18.1,24.9-41.6,48.1-53.1,59
	C244.5,231.1,221,207.8,202.9,182.9L202.9,182.9z"/>
<path class="st3" d="M337.4,177.9c10.8-17.9,16.2-33.8,16.2-47.2c0-5.7-4.7-10.3-10.4-10.3H256v62.5h53.1
	c-18.1,24.9-41.6,48.1-53.1,59v70.6c3.9,0,7.8,0.9,11.3,2.6c7.6,3.8,17.3,8.7,26.8,14.3c37.7,21.8,38.7,51.7,38.7,51.9
	c0,5.7,4.7,10.4,10.4,10.4c0.1,0,0.2,0,0.3,0c5.7-0.3,10.1-5,10.1-10.6c-0.1-22.5-15.6-51.9-46.1-87.2
	c-13.9-16.1-27.7-29.7-36.1-37.8C286.5,241.7,318.2,209.9,337.4,177.9L337.4,177.9z"/>
<path class="st4" d="M348.5,141.2h-185c-12.8,0-23.2-10.4-23.2-23.2v-16c0-12.8,10.4-23.2,23.2-23.2h185c12.8,0,23.2,10.4,23.2,23.2
	v16C371.7,130.7,361.3,141.1,348.5,141.2z"/>
<path class="st4" d="M348.5,433.4h-185c-12.8,0-23.2-10.4-23.2-23.2v-16.1c0-12.8,10.4-23.2,23.2-23.2h185
	c12.8,0,23.2,10.4,23.2,23.2v16C371.7,423,361.4,433.4,348.5,433.4z"/>
<path class="st5" d="M348.5,370.8H256v62.5h92.5c12.8,0,23.2-10.4,23.2-23.2v-16.1C371.7,381.3,361.3,370.9,348.5,370.8z"/>
<path class="st5" d="M348.5,78.6H256v62.5h92.5c12.8,0,23.2-10.4,23.2-23.2v-16C371.8,89.1,361.4,78.6,348.5,78.6
	C348.5,78.6,348.5,78.6,348.5,78.6z"/>
</svg>
