<svg id="Layer_1" data-name="Layer 1" xmlns="http://www.w3.org/2000/svg" xmlns:xlink="http://www.w3.org/1999/xlink" viewBox="0 0 512 512"><defs><style>.cls-1{fill:#8bb9ff;}.cls-2{fill:#9ddff6;}.cls-3{fill:#ffdc65;}.cls-4{fill:#ffc846;}.cls-5{fill:url(#linear-gradient);}.cls-6{fill:#e5e5e5;opacity:0.62;}</style><linearGradient id="linear-gradient" x1="-9.81" y1="426.22" x2="288.13" y2="238.4" gradientUnits="userSpaceOnUse"><stop offset="0" stop-color="#fcee21"/><stop offset="0.5" stop-color="#f9be1f"/><stop offset="1" stop-color="#f7931e"/></linearGradient></defs><title>icon</title><path class="cls-1" d="M458.73,235.83H364a6.57,6.57,0,0,1-6.38-5.06,76.25,76.25,0,0,0-56.54-56.36A6.56,6.56,0,0,1,296,168V73.32a6.57,6.57,0,0,1,7.29-6.52A182.69,182.69,0,0,1,465.26,228.53,6.59,6.59,0,0,1,458.73,235.83Z"/><path class="cls-2" d="M296,168v-19.5a100.9,100.9,0,0,1,87.53,87.3H364a6.58,6.58,0,0,1-6.38-5.05,76.23,76.23,0,0,0-56.54-56.36A6.58,6.58,0,0,1,296,168Z"/><path class="cls-3" d="M465.32,267.72a180.93,180.93,0,0,1-39.22,95.1,6.57,6.57,0,0,1-9.77.55l-53-53-14-14a6.59,6.59,0,0,1-.92-8.11,75.37,75.37,0,0,0,9.35-22.72,6.57,6.57,0,0,1,6.39-5.1H458.8A6.57,6.57,0,0,1,465.32,267.72Z"/><path class="cls-4" d="M383.68,260.44a100.28,100.28,0,0,1-20.37,49.89l-14-14a6.59,6.59,0,0,1-.92-8.11,75.37,75.37,0,0,0,9.35-22.72,6.57,6.57,0,0,1,6.39-5.1Z"/><path class="cls-5" d="M396.52,410.93a7.73,7.73,0,0,1-.62,11.47A214.56,214.56,0,0,1,109.48,103.67,212.82,212.82,0,0,1,238.16,42a7.73,7.73,0,0,1,8.54,7.67V161a7.71,7.71,0,0,1-6,7.5,89.3,89.3,0,1,0,67.6,162.73,7.71,7.71,0,0,1,9.56,1.06Z"/><path class="cls-6" d="M317.88,332.26l16.43,16.43A118.49,118.49,0,1,1,246.7,138v23a7.71,7.71,0,0,1-6,7.5,89.3,89.3,0,1,0,67.6,162.73A7.7,7.7,0,0,1,317.88,332.26Z"/></svg>