<svg id="Layer_1" data-name="Layer 1" xmlns="http://www.w3.org/2000/svg" xmlns:xlink="http://www.w3.org/1999/xlink" viewBox="0 0 512 512"><defs><style>.cls-1{fill:url(#linear-gradient);}.cls-2{fill:url(#linear-gradient-2);}.cls-3,.cls-5{fill:#e5e5e5;}.cls-3{opacity:0.24;}.cls-4{fill:#3a3a3a;}.cls-6{fill:#f2d822;}.cls-7{fill:#f27c25;}</style><linearGradient id="linear-gradient" x1="178.33" y1="442.76" x2="333.67" y2="442.76" gradientUnits="userSpaceOnUse"><stop offset="0" stop-color="#fcee21"/><stop offset="0.5" stop-color="#f9be1f"/><stop offset="1" stop-color="#f7931e"/></linearGradient><linearGradient id="linear-gradient-2" x1="23" y1="258.3" x2="489" y2="258.3" xlink:href="#linear-gradient"/></defs><title>Untitled-2</title><path class="cls-1" d="M330.83,465c-25.49-25.49-26.27-50.21-26.29-51.43a9.71,9.71,0,0,0-9.71-9.65h-78a9.76,9.76,0,0,0-9.71,9.76c0,1.05-.35,25.79-25.88,51.34A9.7,9.7,0,0,0,188,481.59H324A9.72,9.72,0,0,0,330.83,465Z"/><path class="cls-2" d="M455,93.26H57a34,34,0,0,0-34,34V389.36a34,34,0,0,0,34,34H455a34,34,0,0,0,34-34V127.24A34,34,0,0,0,455,93.26Z"/><path class="cls-3" d="M256,423.34H205.69c-2.29,9.73-8.37,25.54-24.5,41.67A9.72,9.72,0,0,0,188,481.59h68Z"/><path class="cls-4" d="M450.17,345.68H61.83V132.09H450.17Z"/><path class="cls-5" d="M256,132.09H61.83V345.68H256Z"/><path class="cls-6" d="M197.17,147.24C206.27,156.34,222,150,222,137V117.53h116.5a14.56,14.56,0,0,0,0-29.12H222V69c0-13-15.75-19.46-24.85-10.29l-34,34a14.56,14.56,0,0,0,0,20.6Z"/><path class="cls-6" d="M314.83,155.78c-9.12-9.12-24.85-2.66-24.85,10.29v19.42H173.48a14.56,14.56,0,1,0,0,29.12H290V234c0,13,15.75,19.4,24.85,10.29l34-34a14.56,14.56,0,0,0,0-20.6Z"/><path class="cls-7" d="M353.08,103H158.92a14.43,14.43,0,0,0,4.27,10.29l34,34a14.25,14.25,0,0,0,10.19,4.27A14.52,14.52,0,0,0,222,136.93V117.51h116.5A14.53,14.53,0,0,0,353.08,103Z"/><path class="cls-7" d="M353.08,200.05H158.92a14.56,14.56,0,0,0,14.56,14.56H290V234a14.54,14.54,0,0,0,14.7,14.56,14.19,14.19,0,0,0,10.15-4.27l34-34a14.41,14.41,0,0,0,4.27-10.29Z"/></svg>