<?xml version="1.0" encoding="utf-8"?>
<!-- Generator: Adobe Illustrator 23.0.6, SVG Export Plug-In . SVG Version: 6.00 Build 0)  -->
<svg version="1.1" id="Capa_1" xmlns="http://www.w3.org/2000/svg" xmlns:xlink="http://www.w3.org/1999/xlink" x="0px" y="0px"
	 viewBox="0 0 512 512" style="enable-background:new 0 0 512 512;" xml:space="preserve">
<style type="text/css">
	.st0{fill:#404A4A;}
	.st1{fill:#617881;}
	.st2{fill:#DD636E;}
	.st3{fill:#DFEAEF;}
</style>
<g>
	<path class="st0" d="M175.4,382.6h161.1v106H175.5L175.4,382.6z"/>
	<path class="st1" d="M256,411.6c-57.8,0-116-1.7-174.2-5C40,404.2,6.6,370.9,3.9,329.1c-5.2-82.2-5.2-164.6,0-246.7
		C6.5,40.6,40,7.4,81.8,5C139.9,1.7,198.2,0,256,0s116.1,1.7,174.2,5c41.8,2.4,75.2,35.6,77.9,77.4c5.2,82,5.2,164.5,0,246.7
		c-2.6,41.8-36.1,75.1-77.9,77.4C372,409.9,313.8,411.6,256,411.6L256,411.6z"/>
	<path class="st0" d="M16.9,331.3c-5.3-83.7-5.3-167.6,0-251.1C19,45.7,41.9,16.9,73.2,6C35.5,12.1,6.3,43.6,3.9,82.4
		c-5.2,82-5.2,164.5,0,246.7c2.5,38.9,31.6,70.4,69.3,76.5C41.9,394.7,19.1,365.9,16.9,331.3z"/>
	<path class="st2" d="M256,380.7c-57,0-115-1.7-172.5-5c-26.2-1.5-47.1-22.4-48.8-48.5c-5.1-80.6-5.1-162.3,0-242.8
		c1.7-26.2,22.6-47,48.8-48.5C141,32.6,199,30.9,256,30.9c57,0,115,1.7,172.5,4.9c26.2,1.5,47.1,22.4,48.8,48.5
		c5.1,80.5,5.1,162.1,0,242.8c-1.7,26.2-22.6,47-48.8,48.5C371,379,313,380.7,256,380.7L256,380.7z"/>
	<path class="st0" d="M256,388.4c-57.1,0-115.3-1.7-172.9-5C53,381.7,28.9,357.7,27,327.7c-5.1-81-5.1-163,0-243.8
		c1.9-30.1,26-54,56.1-55.8c57.6-3.3,115.8-5,172.9-5c57.1,0,115.3,1.7,172.9,5c30.1,1.7,54.2,25.7,56.1,55.8
		c5.1,80.8,5.1,162.8,0,243.8c-1.9,30.1-26,54-56.1,55.8C371.3,386.7,313.1,388.4,256,388.4L256,388.4z M256,38.6
		c-56.8,0-114.7,1.7-172,4.9c-22.3,1.3-40.1,19-41.5,41.3c-5.1,80.1-5.1,161.5,0,241.8c1.4,22.3,19.3,40,41.5,41.3
		c57.3,3.3,115.2,4.9,172,4.9s114.7-1.7,172-4.9c22.3-1.3,40.1-19,41.5-41.3c5.1-80.3,5.1-161.7,0-241.8
		c-1.4-22.3-19.3-40-41.5-41.3C370.7,40.3,312.8,38.6,256,38.6z"/>
	<path class="st1" d="M435.2,488.6c0,12.9-10.5,23.4-23.4,23.4H100.2c-6.5,0-12.3-2.6-16.6-6.9c-4.2-4.2-6.9-10.1-6.9-16.6
		c0-12.9,10.5-23.4,23.4-23.4h311.6c6.5,0,12.3,2.6,16.6,6.9C432.6,476.3,435.2,482.1,435.2,488.6z"/>
	<path class="st0" d="M139,512h-38.8c-6.5,0-12.3-2.6-16.6-6.9c-4.2-4.2-6.9-10.1-6.9-16.6c0-12.9,10.5-23.4,23.4-23.4H139
		c-9.7,3.4-16.6,12.6-16.6,23.4c0,6.9,2.8,13.1,7.3,17.5C132.3,508.7,135.5,510.8,139,512L139,512z"/>
</g>
<path class="st3" d="M330.4,196.1l-103.2-59.6c-7.5-4.3-16.8,1.1-16.8,9.7v119.2c0,8.6,9.3,14,16.8,9.7l103.2-59.6
	C337.9,211.2,337.9,200.4,330.4,196.1z"/>
</svg>
