<svg xmlns="http://www.w3.org/2000/svg" xmlns:xlink="http://www.w3.org/1999/xlink" viewBox="0 0 78.59 64.47"><defs><style>.cls-1{fill:none;}.cls-2{opacity:0.64;}.cls-3{clip-path:url(#clip-path);}.cls-4{opacity:0.21;}.cls-5{fill:#f9f9f9;}.cls-6{fill:url(#radial-gradient);}</style><clipPath id="clip-path"><rect class="cls-1" x="-1044.59" y="262.06" width="1500" height="1000"/></clipPath><radialGradient id="radial-gradient" cx="-65.18" cy="-36.16" r="302.89" gradientUnits="userSpaceOnUse"><stop offset="0" stop-color="#f5b911"/><stop offset="0.09" stop-color="#f5bb18"/><stop offset="0.23" stop-color="#f6c12d"/><stop offset="0.39" stop-color="#f8cb4f"/><stop offset="0.58" stop-color="#fad97e"/><stop offset="0.79" stop-color="#fcebbb"/><stop offset="1" stop-color="#fff"/></radialGradient></defs><g id="Layer_6" data-name="Layer 6"><g class="cls-2"><g class="cls-3"><g class="cls-4"><path class="cls-5" d="M35.47,67.52c-.13-12.8,10.65-22.72,24.6-23.15,11.48-.36,25.71,7.53,25.66,23,0,14-12,22.84-25.06,22.84C45.44,90.18,35.26,78.94,35.47,67.52Z"/><path class="cls-5" d="M36.23,24.45C36.13,36.11,26,45.2,13.13,45.16s-23-9.29-23-20.86C-9.92,12.47.73,2.92,13.7,3.14,26.37,3.37,36.34,12.8,36.23,24.45Z"/><path class="cls-5" d="M60.19,1.38C48.07,1.17,38.42-7.9,38.53-19c.1-11.5,10.07-20,22.81-19.9,9.74.1,21.54,7.34,21.39,20.59C82.61-7.33,72.11,1.6,60.19,1.38Z"/></g></g></g><path class="cls-6" d="M78.59,7.78a33.58,33.58,0,0,1-9.28,2.54,16,16,0,0,0,7.08-8.91,32,32,0,0,1-10.21,3.9,16.12,16.12,0,0,0-27.87,11A16.35,16.35,0,0,0,38.68,20,45.64,45.64,0,0,1,5.47,3.15a16.14,16.14,0,0,0,5,21.54,15.84,15.84,0,0,1-7.28-2v.18A16.19,16.19,0,0,0,16.05,38.71a16,16,0,0,1-4.22.53A14.61,14.61,0,0,1,8.78,39,16.25,16.25,0,0,0,23.83,50.19a32.35,32.35,0,0,1-20,6.87A30.57,30.57,0,0,1,0,56.84a45.38,45.38,0,0,0,24.72,7.23c29.64,0,45.85-24.56,45.85-45.85,0-.71,0-1.4-.06-2.08A32.13,32.13,0,0,0,78.59,7.78Z"/></g></svg>