<svg id="Layer_1" data-name="Layer 1" xmlns="http://www.w3.org/2000/svg" viewBox="0 0 512 512"><defs><style>.cls-1{fill:#656666;}.cls-2{fill:#ffeec0;}.cls-3{fill:#333;}.cls-4{fill:#ffa64d;}.cls-5{fill:#ffc846;}</style></defs><title>a</title><path class="cls-1" d="M426,189.09a15,15,0,0,1-30,0C396,111.84,333.13,49,255.8,49S115.56,111.84,115.56,189.09a15,15,0,0,1-30,0C85.56,95.3,161.93,19,255.8,19S426,95.3,426,189.09Z"/><path class="cls-2" d="M411.23,344.78a15,15,0,0,0-15,15v46.88a32,32,0,0,1-31.94,31.9H317.37a15,15,0,0,0,0,30h46.92a62,62,0,0,0,61.94-61.9V359.78A15,15,0,0,0,411.23,344.78Z"/><path class="cls-3" d="M426,189.09a15,15,0,0,1-30,0C396,111.84,333.13,49,255.8,49V19C349.67,19,426,95.3,426,189.09Z"/><path class="cls-4" d="M293.92,415.11H267.14a38.45,38.45,0,0,0,0,76.89h26.78a38.45,38.45,0,1,0,0-76.89Z"/><path class="cls-4" d="M0,274.43a54.41,54.41,0,0,0,54.34,54.34h21V220.1h-21A54.4,54.4,0,0,0,0,274.43Z"/><path class="cls-4" d="M457.66,220h-21V328.72h21a54.34,54.34,0,0,0,0-108.68Z"/><path class="cls-5" d="M116.4,174.09H85.12a39.83,39.83,0,0,0-39.78,39.79V335a39.83,39.83,0,0,0,39.78,39.79H116.4A39.84,39.84,0,0,0,156.19,335V213.88A39.84,39.84,0,0,0,116.4,174.09Z"/><path class="cls-5" d="M426.88,174H395.6a39.83,39.83,0,0,0-39.79,39.78V334.94a39.84,39.84,0,0,0,39.79,39.79h31.28a39.83,39.83,0,0,0,39.78-39.79V213.82A39.82,39.82,0,0,0,426.88,174Z"/></svg>