<svg id="Layer_1" data-name="Layer 1" xmlns="http://www.w3.org/2000/svg" viewBox="0 0 512 512"><defs><style>.cls-1{fill:#9ddff6;}.cls-2{fill:#8bb9ff;}.cls-3{fill:#fe9;}.cls-4{fill:#fc6;}.cls-5{fill:#ffa64d;}</style></defs><title>icon</title><path class="cls-1" d="M78.34,171.87l.21,10.77a186.74,186.74,0,0,1-14.89,73.07L53.58,279.42c-15.91,37.4,11.56,78.91,52.23,78.91H227.3l9.87-133.08L227.3,173V152.76Z"/><path class="cls-2" d="M348.81,358.33H227.3V152.76l149.19,19.11v11.35a186.79,186.79,0,0,0,14.46,72l10.23,24.47c15.63,37.37-11.85,78.6-52.37,78.6Z"/><ellipse class="cls-3" cx="197.73" cy="76.71" rx="29.6" ry="29.58"/><ellipse class="cls-4" cx="256.9" cy="76.71" rx="29.6" ry="29.58"/><path class="cls-4" d="M227.3,106.32l9.87,33.2-9.87,32.35h-149V123.33a17,17,0,0,1,17-17Z"/><path class="cls-5" d="M376.49,123.33v48.54H227.3V106.32H359.48a17,17,0,0,1,17,17Z"/><path class="cls-3" d="M348.32,227.51a118.68,118.68,0,0,0,0,237.36l11.92-123.23Z"/><path class="cls-4" d="M467,346.2A118.81,118.81,0,0,1,348.32,464.87V227.51A118.82,118.82,0,0,1,467,346.2Z"/><path class="cls-4" d="M339.26,320.37c-.4,2.13.1,3.82.62,4.23a42.8,42.8,0,0,0,8.44,4.82L357,344.64l-8.66,11.21c-8.72-3.25-17.23-7-23.56-12-8-6.25-11.64-17-9.57-28A31.62,31.62,0,0,1,335.8,291.5v-2a12.24,12.24,0,0,1,12.52-12.24v37.08a10.41,10.41,0,0,0-4.36.22c-3.55,1.07-4.49,4.71-4.7,5.79Z"/><path class="cls-4" d="M347.68,378.61l.64,0,7.84,19.12-7.84,17.4a8.26,8.26,0,0,1-.86,0,12.47,12.47,0,0,1-11.66-12.57v-.15c-6-1-11.38-3.12-18.25-7.61A12.24,12.24,0,0,1,331,374.28C337.14,378.32,339.31,378.67,347.68,378.61Z"/><path class="cls-5" d="M361.08,319.16c-4-2.15-8.71-4.27-12.76-4.8V277.28h.32a12.46,12.46,0,0,1,11.65,12.57v1.06c3,.88,8.21,3.74,13.15,6.76a12.4,12.4,0,0,1-12.36,21.48Z"/><path class="cls-5" d="M384.14,372.22a37.5,37.5,0,0,1-23.85,28.71v1.94a12.24,12.24,0,0,1-12,12.24V378.59A12.38,12.38,0,0,0,360,368.15c.59-3.49-.06-8.15-6.54-10.43-1.7-.61-3.41-1.22-5.12-1.87V329.42c4.13,1.89,8.83,3.63,13.29,5.21C377.9,340.38,387,355.49,384.14,372.22Z"/></svg>