<svg id="Layer_1" data-name="Layer 1" xmlns="http://www.w3.org/2000/svg" xmlns:xlink="http://www.w3.org/1999/xlink" viewBox="0 0 512 512"><defs><style>.cls-1{fill:url(#linear-gradient);}.cls-2{fill:url(#linear-gradient-2);}.cls-3,.cls-5{fill:#e5e5e5;}.cls-3{opacity:0.17;}.cls-4{fill:#9ddff6;}.cls-6{fill:#deb26f;}.cls-7{fill:#ccc99f;}.cls-8{fill:#f2d822;}.cls-9{fill:url(#linear-gradient-3);}.cls-10{fill:url(#linear-gradient-4);}</style><linearGradient id="linear-gradient" x1="181.67" y1="404.67" x2="330.34" y2="404.67" gradientUnits="userSpaceOnUse"><stop offset="0" stop-color="#fcee21"/><stop offset="0.5" stop-color="#f9be1f"/><stop offset="1" stop-color="#f7931e"/></linearGradient><linearGradient id="linear-gradient-2" x1="33" y1="228.12" x2="479" y2="228.12" xlink:href="#linear-gradient"/><linearGradient id="linear-gradient-3" x1="146.61" y1="-22.31" x2="352.42" y2="307.62" xlink:href="#linear-gradient"/><linearGradient id="linear-gradient-4" x1="46.28" y1="40.27" x2="252.09" y2="370.2" xlink:href="#linear-gradient"/></defs><title>icon</title><path class="cls-1" d="M327.62,426c-24.4-24.4-25.14-48-25.16-49.22a9.3,9.3,0,0,0-9.29-9.24H218.46a9.34,9.34,0,0,0-9.29,9.35c0,1-.33,24.68-24.77,49.13A9.29,9.29,0,0,0,191,441.83H321A9.31,9.31,0,0,0,327.62,426Z"/><path class="cls-2" d="M446.48,70.17h-381A32.55,32.55,0,0,0,33,102.69V353.56a32.55,32.55,0,0,0,32.52,32.52h381A32.55,32.55,0,0,0,479,353.56V102.69A32.55,32.55,0,0,0,446.48,70.17Z"/><path class="cls-3" d="M256,386.08H207.85c-2.19,9.31-8,24.44-23.45,39.88A9.3,9.3,0,0,0,191,441.83h65Z"/><path class="cls-4" d="M441.83,311.75H70.17V107.33H441.83Z"/><path class="cls-5" d="M256,107.33H70.17V311.75H256Z"/><path class="cls-6" d="M170.36,304.18a4.6,4.6,0,0,1-4.61-4.6V195.94a4.61,4.61,0,1,1,9.21,0V299.58A4.6,4.6,0,0,1,170.36,304.18Z"/><path class="cls-7" d="M224.68,201.56a4.6,4.6,0,0,1-4.6-4.6V157.75a4.61,4.61,0,1,1,9.21,0V197a4.6,4.6,0,0,1-4.61,4.6Z"/><path class="cls-7" d="M224.68,295.27a4.6,4.6,0,0,1-4.6-4.61v-58.2a4.61,4.61,0,1,1,9.21,0v58.2A4.6,4.6,0,0,1,224.68,295.27Z"/><path class="cls-6" d="M279,172.49a4.6,4.6,0,0,1-4.61-4.6v-47.2a4.61,4.61,0,1,1,9.21,0v47.2A4.6,4.6,0,0,1,279,172.49Z"/><path class="cls-6" d="M279,270a4.6,4.6,0,0,1-4.61-4.6V198.29a4.61,4.61,0,0,1,9.21,0v67.09A4.6,4.6,0,0,1,279,270Z"/><path class="cls-7" d="M333.33,221.5a4.6,4.6,0,0,1-4.61-4.6V141.54a4.61,4.61,0,1,1,9.21,0V216.9A4.6,4.6,0,0,1,333.33,221.5Z"/><path class="cls-7" d="M333.33,301.63a4.61,4.61,0,0,1-4.61-4.61V234.43a4.61,4.61,0,1,1,9.21,0V297A4.61,4.61,0,0,1,333.33,301.63Z"/><path class="cls-8" d="M341.39,255.87H325.27a4.15,4.15,0,0,1-4.15-4.15V197.5a4.14,4.14,0,0,1,4.15-4.15h16.12a4.15,4.15,0,0,1,4.15,4.15v54.22A4.15,4.15,0,0,1,341.39,255.87Z"/><path class="cls-9" d="M287.07,236.24H270.94a4.15,4.15,0,0,1-4.15-4.15V147.77a4.15,4.15,0,0,1,4.15-4.15h16.13a4.15,4.15,0,0,1,4.15,4.15v84.32A4.15,4.15,0,0,1,287.07,236.24Z"/><path class="cls-8" d="M232.75,245.36H216.62a4.15,4.15,0,0,1-4.15-4.15V187a4.15,4.15,0,0,1,4.15-4.15h16.13a4.14,4.14,0,0,1,4.14,4.15v54.23A4.14,4.14,0,0,1,232.75,245.36Z"/><path class="cls-10" d="M178.42,270.44H162.3a4.15,4.15,0,0,1-4.15-4.15V212.06a4.14,4.14,0,0,1,4.15-4.14h16.12a4.14,4.14,0,0,1,4.15,4.14v54.23A4.15,4.15,0,0,1,178.42,270.44Z"/></svg>