<svg id="Layer_1" data-name="Layer 1" xmlns="http://www.w3.org/2000/svg" xmlns:xlink="http://www.w3.org/1999/xlink" viewBox="0 0 512 512"><defs><style>.cls-1{fill:url(#linear-gradient);}.cls-2{fill:url(#linear-gradient-2);}.cls-3,.cls-5{fill:#e5e5e5;}.cls-3{opacity:0.17;}.cls-4{fill:#3a3a3a;}.cls-6{fill:#deb26f;}.cls-7{fill:#ccc99f;}.cls-8{fill:#f2d822;}.cls-9{fill:url(#linear-gradient-3);}.cls-10{fill:url(#linear-gradient-4);}</style><linearGradient id="linear-gradient" x1="181.67" y1="416.67" x2="330.34" y2="416.67" gradientUnits="userSpaceOnUse"><stop offset="0" stop-color="#fcee21"/><stop offset="0.5" stop-color="#f9be1f"/><stop offset="1" stop-color="#f7931e"/></linearGradient><linearGradient id="linear-gradient-2" x1="33" y1="240.12" x2="479" y2="240.12" xlink:href="#linear-gradient"/><linearGradient id="linear-gradient-3" x1="146.61" y1="-10.31" x2="352.42" y2="319.62" xlink:href="#linear-gradient"/><linearGradient id="linear-gradient-4" x1="46.28" y1="52.27" x2="252.09" y2="382.2" xlink:href="#linear-gradient"/></defs><title>Untitled-2</title><path class="cls-1" d="M327.62,438c-24.4-24.4-25.14-48-25.16-49.22a9.3,9.3,0,0,0-9.29-9.24H218.46a9.34,9.34,0,0,0-9.29,9.35c0,1-.33,24.68-24.77,49.13A9.29,9.29,0,0,0,191,453.83H321A9.31,9.31,0,0,0,327.62,438Z"/><path class="cls-2" d="M446.48,82.17h-381A32.55,32.55,0,0,0,33,114.69V365.56a32.55,32.55,0,0,0,32.52,32.52h381A32.55,32.55,0,0,0,479,365.56V114.69A32.55,32.55,0,0,0,446.48,82.17Z"/><path class="cls-3" d="M256,398.08H207.85c-2.19,9.31-8,24.44-23.45,39.88A9.3,9.3,0,0,0,191,453.83h65Z"/><path class="cls-4" d="M441.83,323.75H70.17V119.33H441.83Z"/><path class="cls-5" d="M256,119.33H70.17V323.75H256Z"/><path class="cls-6" d="M170.36,316.18a4.6,4.6,0,0,1-4.61-4.6V207.94a4.61,4.61,0,1,1,9.21,0V311.58A4.6,4.6,0,0,1,170.36,316.18Z"/><path class="cls-7" d="M224.68,213.56a4.6,4.6,0,0,1-4.6-4.6V169.75a4.61,4.61,0,1,1,9.21,0V209a4.6,4.6,0,0,1-4.61,4.6Z"/><path class="cls-7" d="M224.68,307.27a4.6,4.6,0,0,1-4.6-4.61v-58.2a4.61,4.61,0,1,1,9.21,0v58.2A4.6,4.6,0,0,1,224.68,307.27Z"/><path class="cls-6" d="M279,184.49a4.6,4.6,0,0,1-4.61-4.6v-47.2a4.61,4.61,0,1,1,9.21,0v47.2A4.6,4.6,0,0,1,279,184.49Z"/><path class="cls-6" d="M279,282a4.6,4.6,0,0,1-4.61-4.6V210.29a4.61,4.61,0,0,1,9.21,0v67.09A4.6,4.6,0,0,1,279,282Z"/><path class="cls-7" d="M333.33,233.5a4.6,4.6,0,0,1-4.61-4.6V153.54a4.61,4.61,0,1,1,9.21,0V228.9A4.6,4.6,0,0,1,333.33,233.5Z"/><path class="cls-7" d="M333.33,313.63a4.61,4.61,0,0,1-4.61-4.61V246.43a4.61,4.61,0,1,1,9.21,0V309A4.61,4.61,0,0,1,333.33,313.63Z"/><path class="cls-8" d="M341.39,267.87H325.27a4.15,4.15,0,0,1-4.15-4.15V209.5a4.14,4.14,0,0,1,4.15-4.15h16.12a4.15,4.15,0,0,1,4.15,4.15v54.22A4.15,4.15,0,0,1,341.39,267.87Z"/><path class="cls-9" d="M287.07,248.24H270.94a4.15,4.15,0,0,1-4.15-4.15V159.77a4.15,4.15,0,0,1,4.15-4.15h16.13a4.15,4.15,0,0,1,4.15,4.15v84.32A4.15,4.15,0,0,1,287.07,248.24Z"/><path class="cls-8" d="M232.75,257.36H216.62a4.15,4.15,0,0,1-4.15-4.15V199a4.15,4.15,0,0,1,4.15-4.15h16.13a4.14,4.14,0,0,1,4.14,4.15v54.23A4.14,4.14,0,0,1,232.75,257.36Z"/><path class="cls-10" d="M178.42,282.44H162.3a4.15,4.15,0,0,1-4.15-4.15V224.06a4.14,4.14,0,0,1,4.15-4.14h16.12a4.14,4.14,0,0,1,4.15,4.14v54.23A4.15,4.15,0,0,1,178.42,282.44Z"/></svg>