<svg xmlns="http://www.w3.org/2000/svg" xmlns:xlink="http://www.w3.org/1999/xlink" viewBox="0 0 63.39 63.39"><defs><style>.cls-1{fill:none;}.cls-2{opacity:0.64;}.cls-3{clip-path:url(#clip-path);}.cls-4{opacity:0.21;}.cls-5{fill:#f9f9f9;}.cls-6{fill:url(#radial-gradient);}</style><clipPath id="clip-path"><rect class="cls-1" x="-931.61" y="261.38" width="1500" height="1000"/></clipPath><radialGradient id="radial-gradient" cx="-56.75" cy="-38.17" r="255.75" gradientUnits="userSpaceOnUse"><stop offset="0" stop-color="#f5b911"/><stop offset="0.09" stop-color="#f5bb18"/><stop offset="0.23" stop-color="#f6c12d"/><stop offset="0.39" stop-color="#f8cb4f"/><stop offset="0.58" stop-color="#fad97e"/><stop offset="0.79" stop-color="#fcebbb"/><stop offset="1" stop-color="#fff"/></radialGradient></defs><g id="Layer_6" data-name="Layer 6"><g class="cls-2"><g class="cls-3"><g class="cls-4"><path class="cls-5" d="M78.88,45.1c11.36-.39,23.76,7.94,23.76,21.82,0,11.65-11,21.28-23.73,21.29-13.23,0-23.85-9.87-23.65-22C55.45,54.3,65.73,45.11,78.88,45.1Z"/><path class="cls-5" d="M5.72,66.25c.16,10.94-9,19.65-21,19.94S-37,78-37.37,67.21C-37.69,56.07-28.08,47-15.93,46.87-4,46.8,5.56,55.39,5.72,66.25Z"/><path class="cls-5" d="M52.82,23.74C52.73,34.67,43.23,43,31.1,42.84c-11.63-.18-20.89-8.65-21-19.18C10.07,13,19.85,4,31.58,4S52.92,12.89,52.82,23.74Z"/></g></g></g><path class="cls-6" d="M57.66,0H5.73A5.74,5.74,0,0,0,0,5.73V57.66a5.74,5.74,0,0,0,5.73,5.73H57.66a5.74,5.74,0,0,0,5.73-5.73V5.73A5.74,5.74,0,0,0,57.66,0Zm-38,54.74A1.66,1.66,0,0,1,18,56.4H10.84a1.66,1.66,0,0,1-1.67-1.66V25a1.67,1.67,0,0,1,1.67-1.67H18A1.67,1.67,0,0,1,19.62,25ZM14.4,20.48a6.75,6.75,0,1,1,6.74-6.75A6.75,6.75,0,0,1,14.4,20.48ZM56.74,54.87A1.53,1.53,0,0,1,55.2,56.4H47.58a1.52,1.52,0,0,1-1.53-1.53v-14c0-2.08.61-9.13-5.45-9.13-4.7,0-5.65,4.83-5.84,7V54.87a1.53,1.53,0,0,1-1.53,1.53H25.85a1.53,1.53,0,0,1-1.53-1.53v-30a1.54,1.54,0,0,1,1.53-1.53h7.38a1.54,1.54,0,0,1,1.53,1.53v2.6c1.74-2.61,4.33-4.63,9.84-4.63,12.21,0,12.14,11.4,12.14,17.67V54.87Z"/></g></svg>