<svg id="Layer_1" data-name="Layer 1" xmlns="http://www.w3.org/2000/svg" xmlns:xlink="http://www.w3.org/1999/xlink" viewBox="0 0 512 512"><defs><style>.cls-1{fill:#ffb471;}.cls-2{fill:#333;}.cls-3{fill:url(#linear-gradient);}.cls-4{fill:#ffbc1d;}.cls-5{fill:#ffeec0;}.cls-6{fill:#656666;}</style><linearGradient id="linear-gradient" x1="-172.54" y1="447.5" x2="458.69" y2="447.5" gradientUnits="userSpaceOnUse"><stop offset="0" stop-color="#fcee21"/><stop offset="0.5" stop-color="#f9be1f"/><stop offset="1" stop-color="#f7931e"/></linearGradient></defs><title>a</title><path class="cls-1" d="M512,40.77V163.23A40.82,40.82,0,0,1,471.23,204H102A102,102,0,0,1,102,0H471.23A40.82,40.82,0,0,1,512,40.77Z"/><path class="cls-2" d="M512,269.2v48.6A40.24,40.24,0,0,1,471.8,358H64.5a64.5,64.5,0,0,1,0-129H471.8A40.24,40.24,0,0,1,512,269.2Z"/><path class="cls-3" d="M203.8,383H64.5a64.5,64.5,0,0,0,0,129H203.8A40.24,40.24,0,0,0,244,471.8V423.2A40.24,40.24,0,0,0,203.8,383Z"/><path class="cls-4" d="M512,40.77V163.23A40.82,40.82,0,0,1,471.23,204H256V0H471.23A40.82,40.82,0,0,1,512,40.77Z"/><path class="cls-5" d="M512,269.2v48.6A40.24,40.24,0,0,1,471.8,358H256V229H471.8A40.24,40.24,0,0,1,512,269.2Z"/><path class="cls-5" d="M497,383H284a15,15,0,0,0,0,30H497a15,15,0,0,0,0-30Z"/><path class="cls-5" d="M391,432H284a15,15,0,0,0,0,30H391a15,15,0,0,0,0-30Z"/><path class="cls-5" d="M463.9,133.39l-15.68-15.68a49.46,49.46,0,1,0-21.45,21l15.91,15.91a15,15,0,0,0,21.22-21.22Zm-45.61-25.1a19.49,19.49,0,1,1,0-27.58A19.53,19.53,0,0,1,418.29,108.29Z"/><path class="cls-6" d="M103,54a48,48,0,1,0,48,48A48.05,48.05,0,0,0,103,54Z"/></svg>