<svg id="Layer_1" data-name="Layer 1" xmlns="http://www.w3.org/2000/svg" xmlns:xlink="http://www.w3.org/1999/xlink" viewBox="0 0 512 512"><defs><style>.cls-1{fill:#333;}.cls-2{fill:url(#linear-gradient);}.cls-3{fill:url(#linear-gradient-2);}.cls-4{fill:#656666;}</style><linearGradient id="linear-gradient" x1="-253.44" y1="-0.12" x2="743.49" y2="680.13" gradientUnits="userSpaceOnUse"><stop offset="0" stop-color="#fcee21"/><stop offset="0.5" stop-color="#f9be1f"/><stop offset="1" stop-color="#f7931e"/></linearGradient><linearGradient id="linear-gradient-2" x1="-141.59" y1="-164.03" x2="855.33" y2="516.22" xlink:href="#linear-gradient"/></defs><title>a</title><path class="cls-1" d="M437.89,252.73h-39.6a102.88,102.88,0,0,1,6.24,35.4V437.78A44.12,44.12,0,0,1,402,452.56h65.46a44.39,44.39,0,0,0,44.35-44.34V326.64A74,74,0,0,0,437.89,252.73Z"/><path class="cls-1" d="M107.06,288.13a102.88,102.88,0,0,1,6.25-35.4H73.71A74,74,0,0,0-.2,326.64v81.58a44.4,44.4,0,0,0,44.35,44.35h65.46a44.23,44.23,0,0,1-2.55-14.79Z"/><path class="cls-2" d="M301.06,214.22H210.54a74,74,0,0,0-73.91,73.91V437.78a14.78,14.78,0,0,0,14.78,14.78H360.19A14.78,14.78,0,0,0,375,437.78V288.13A74,74,0,0,0,301.06,214.22Z"/><path class="cls-3" d="M255.8,18.25a88.87,88.87,0,1,0,88.89,88.88A89,89,0,0,0,255.8,18.25Z"/><path class="cls-4" d="M99.72,101.1a66.44,66.44,0,1,0,66.47,66.47A66.55,66.55,0,0,0,99.72,101.1Z"/><path class="cls-4" d="M411.88,101.1a66.48,66.48,0,1,0,66.48,66.47A66.55,66.55,0,0,0,411.88,101.1Z"/></svg>