<?xml version="1.0" encoding="utf-8"?>
<!-- Generator: Adobe Illustrator 23.0.6, SVG Export Plug-In . SVG Version: 6.00 Build 0)  -->
<svg version="1.1" id="Layer_1" xmlns="http://www.w3.org/2000/svg" xmlns:xlink="http://www.w3.org/1999/xlink" x="0px" y="0px"
	 viewBox="0 0 512 512" style="enable-background:new 0 0 512 512;" xml:space="preserve">
<style type="text/css">
	.st0{fill:#384949;}
	.st1{fill:#293939;}
	.st2{fill:url(#SVGID_1_);}
	.st3{fill:#FFA64D;}
	.st4{fill:#FFDC65;}
	.st5{fill:#FFC846;}
	.st6{fill:#4A696F;}
	.st7{fill:#3E5959;}
	.st8{fill:#3A3A3A;}
	.st9{fill:#565656;}
</style>
<title>icon2</title>
<path class="st0" d="M452,129.7v34.5c0.1,6.3-5,11.4-11.3,11.5c-0.1,0-0.1,0-0.2,0h-369c-6.3,0.1-11.4-4.9-11.5-11.2
	c0-0.1,0-0.2,0-0.3v-34.5l58.2-23h298.6L452,129.7z"/>
<path class="st1" d="M452,129.7v34.5c0.1,6.3-5,11.4-11.3,11.5c-0.1,0-0.1,0-0.2,0H256v-68.9h160.8L452,129.7z"/>
<linearGradient id="SVGID_1_" gradientUnits="userSpaceOnUse" x1="-44.27" y1="234.65" x2="421.25" y2="234.65" gradientTransform="matrix(1 0 0 -1 0 514)">
	<stop  offset="0" style="stop-color:#FCEE21"/>
	<stop  offset="0.18" style="stop-color:#FCE721"/>
	<stop  offset="0.44" style="stop-color:#FAD220"/>
	<stop  offset="0.76" style="stop-color:#F9B11F"/>
	<stop  offset="1" style="stop-color:#F7931E"/>
</linearGradient>
<path class="st2" d="M370.8,106.7H141.2c-6.3-0.1-11.4,5-11.5,11.2c0,0.1,0,0.2,0,0.2v322.3c-0.1,6.3,5,11.4,11.3,11.5
	c0.1,0,0.2,0,0.2,0h229.7c6.3,0.1,11.4-5,11.5-11.2c0-0.1,0-0.2,0-0.2V118.2c0.1-6.3-5-11.4-11.2-11.5
	C371,106.7,370.9,106.7,370.8,106.7z"/>
<path class="st3" d="M382.3,118.2v322.3c0.1,6.3-5,11.4-11.3,11.5c-0.1,0-0.2,0-0.2,0H256V106.7h114.8c6.3-0.1,11.4,5,11.5,11.2
	C382.3,118,382.3,118.1,382.3,118.2z"/>
<path class="st4" d="M328.8,174.2c-6.6-2.2-11.8-7.4-14-14c-1.6-4.6-6-7.6-10.8-7.6h-96c-4.8,0-9.2,3-10.8,7.6
	c-2.2,6.6-7.4,11.8-14,14c-4.6,1.6-7.6,6-7.6,10.8v188.6c0,4.8,3,9.2,7.6,10.8c6.6,2.2,11.8,7.4,14,14c1.6,4.6,6,7.6,10.8,7.6h96
	c4.8,0,9.2-3,10.8-7.6c2.2-6.6,7.4-11.8,14-14c4.6-1.6,7.6-5.9,7.6-10.8V185C336.4,180.2,333.4,175.9,328.8,174.2z"/>
<path class="st5" d="M336.4,185v188.7c0,4.8-3,9.2-7.6,10.8c-6.6,2.2-11.8,7.4-14,14c-1.6,4.6-6,7.6-10.8,7.6h-48V152.6h48
	c4.8,0,9.2,3,10.8,7.6c2.2,6.6,7.4,11.8,14,14C333.4,175.8,336.4,180.2,336.4,185z"/>
<path class="st6" d="M440.5,60h-369c-6.3-0.1-11.4,4.9-11.5,11.2c0,0.1,0,0.2,0,0.3v58.2h392V71.5c0.1-6.3-5-11.4-11.3-11.5
	C440.7,60,440.6,60,440.5,60z"/>
<path class="st7" d="M452,71.5v58.2H256V60h184.5c6.3-0.1,11.4,5,11.5,11.3C452,71.3,452,71.4,452,71.5z"/>
<path class="st8" d="M256,244.5c-19,0-34.4,15.4-34.4,34.5s15.4,34.4,34.5,34.4c19,0,34.4-15.4,34.4-34.4c0-19-15.3-34.4-34.3-34.5
	C256.1,244.5,256.1,244.5,256,244.5z"/>
<path class="st8" d="M267.5,210.1c0,6.3-5.1,11.5-11.5,11.5c-6.3,0-11.5-5.1-11.5-11.5c0-6.3,5.1-11.5,11.5-11.5
	c6.3-0.1,11.4,5,11.5,11.3C267.5,209.9,267.5,210,267.5,210.1z"/>
<path class="st8" d="M267.5,348.6c0,6.3-5.1,11.5-11.5,11.5c-6.3,0-11.5-5.1-11.5-11.5c0-6.3,5.1-11.5,11.5-11.5
	c6.3-0.1,11.4,5,11.5,11.3C267.5,348.5,267.5,348.6,267.5,348.6z"/>
<path class="st9" d="M267.5,348.6c0.1,6.3-5,11.4-11.3,11.5c-0.1,0-0.1,0-0.2,0v-23c6.3-0.1,11.4,5,11.5,11.3
	C267.5,348.5,267.5,348.6,267.5,348.6z"/>
<path class="st9" d="M256,221.6v-23c6.4,0,11.5,5.1,11.5,11.5S262.4,221.6,256,221.6z"/>
<path class="st9" d="M290.5,279c0,19-15.4,34.4-34.4,34.4c0,0,0,0-0.1,0v-68.9c19,0,34.4,15.3,34.5,34.3
	C290.5,278.9,290.5,278.9,290.5,279z"/>
</svg>
