<?xml version="1.0" encoding="utf-8"?>
<!-- Generator: Adobe Illustrator 23.0.6, SVG Export Plug-In . SVG Version: 6.00 Build 0)  -->
<svg version="1.1" id="Layer_1" xmlns="http://www.w3.org/2000/svg" xmlns:xlink="http://www.w3.org/1999/xlink" x="0px" y="0px"
	 viewBox="0 0 512 512" style="enable-background:new 0 0 512 512;" xml:space="preserve">
<style type="text/css">
	.st0{fill:#3A3A3A;}
	.st1{fill:#252626;}
	.st2{fill:#565656;}
	.st3{fill:#FFDC65;}
	.st4{fill:#FFD064;}
	.st5{fill:#FFE07D;}
	.st6{fill:#FFB471;}
	.st7{fill:#FFEEC0;}
	.st8{fill:#FFCC66;}
	.st9{fill:#FFA64D;}
</style>
<title>icon2</title>
<path class="st0" d="M363.3,447.2H335c-7.4,0-13.4-6-13.4-13.4v0v-42h55v42C376.6,441.2,370.6,447.2,363.3,447.2z"/>
<path class="st0" d="M132.7,447.2h-28.2c-7.4,0-13.4-6-13.4-13.4c0,0,0,0,0,0v-42h55v42C146.1,441.2,140.1,447.2,132.7,447.2z"/>
<path class="st1" d="M125.3,447.2h-20.9c-7.4,0-13.4-6-13.4-13.4v-42h20.9v42C111.9,441.2,117.9,447.2,125.3,447.2z"/>
<path class="st1" d="M355.9,447.2H335c-7.4,0-13.4-6-13.4-13.4c0,0,0,0,0,0v-42h20.9v42C342.5,441.2,348.5,447.2,355.9,447.2
	C355.9,447.2,355.9,447.2,355.9,447.2z"/>
<path class="st2" d="M376.7,410.5H91.1c-23.7,0-42.9-19.2-42.9-42.9c0,0,0,0,0,0v-235c0-23.7,19.2-42.9,42.9-42.9l0,0h285.6
	c23.7,0,42.9,19.2,42.9,42.9l0,0v235C419.6,391.4,400.4,410.6,376.7,410.5C376.7,410.6,376.7,410.6,376.7,410.5L376.7,410.5z"/>
<path class="st3" d="M107.8,410.5H91.1c-23.7,0-42.9-19.2-42.9-42.9V132.7c0-23.7,19.2-42.9,42.9-42.9c0,0,0,0,0,0h16.7
	c-23.7,0-42.9,19.2-42.9,42.9c0,0,0,0,0,0v234.9C64.9,391.3,84.1,410.5,107.8,410.5z"/>
<path class="st0" d="M354.3,373.2h-62.6v-246h62.6c15.4,0,27.9,12.5,27.9,27.9v0v190.2C382.2,360.7,369.7,373.2,354.3,373.2z"/>
<circle class="st4" cx="365.6" cy="163" r="98.2"/>
<circle class="st5" cx="365.6" cy="163" r="73"/>
<path class="st6" d="M257.6,127.2h34.1c15.4,0,27.9,12.5,27.9,27.9v190.2c0,15.4-12.5,27.9-27.9,27.9l0,0h-34.1"/>
<path class="st3" d="M257.6,373.2h-172v-246h172c15.4,0,27.9,12.5,27.9,27.9v190.2C285.5,360.7,273,373.2,257.6,373.2z"/>
<path class="st0" d="M109.1,202H88.6c-11-0.2-19.7-9.4-19.5-20.4c0.2-10.7,8.8-19.2,19.5-19.5h20.5c11-0.2,20.1,8.5,20.4,19.5
	S121,201.8,110,202C109.7,202,109.4,202,109.1,202z"/>
<path class="st0" d="M109.1,338.2H88.6c-11,0-19.9-8.9-19.9-19.9s8.9-19.9,19.9-19.9h20.5c11,0,19.9,8.9,19.9,19.9
	S120.1,338.2,109.1,338.2C109.1,338.2,109.1,338.2,109.1,338.2z"/>
<path class="st6" d="M184.8,313.8c-16.5,0-29.8-13.3-29.8-29.7c0,0,0,0,0,0v-67.7c0-16.5,13.3-29.8,29.8-29.8s29.8,13.3,29.8,29.8
	V284C214.6,300.5,201.2,313.8,184.8,313.8L184.8,313.8L184.8,313.8z"/>
<path class="st7" d="M157.6,221.6h20.5c7.4,0,13.3,6,13.3,13.3c0,0,0,0,0,0.1v30.3c0,7.4-6,13.3-13.3,13.3h-20.5"/>
<path class="st0" d="M157.6,278.6c-7.4,0-13.3-6-13.3-13.3V235c0-7.4,6-13.3,13.3-13.3s13.3,6,13.3,13.3v30.3
	C170.9,272.6,164.9,278.6,157.6,278.6z"/>
<path class="st8" d="M358.7,142.7c-0.3,1-0.1,2.2,0.5,3.1c1.9,1.4,4,2.6,6.1,3.5l6.3,11.1l-6.3,8.2c-6.4-2.4-12.6-5.1-17.2-8.7
	c-5.8-4.6-8.5-12.4-7-20.4c1.4-8.2,7.2-15,15-17.7v-1.4c0-4.9,4-8.9,8.9-8.9c0.1,0,0.1,0,0.2,0v27c-1.1-0.2-2.1-0.1-3.2,0.2
	C359.5,139.3,358.8,141.9,358.7,142.7L358.7,142.7z"/>
<path class="st8" d="M364.8,185.1h0.5L371,199l-5.7,12.7c-0.2,0-0.4,0-0.6,0c-4.8-0.3-8.5-4.3-8.5-9.2v-0.1
	c-4.4-0.7-8.3-2.3-13.3-5.6c-4.3-2.4-5.8-7.8-3.4-12.1c2.4-4.3,7.8-5.8,12.1-3.4c0.4,0.2,0.7,0.4,1.1,0.7
	C357.1,184.9,358.7,185.2,364.8,185.1z"/>
<path class="st9" d="M374.6,141.8c-2.9-1.7-6-2.9-9.3-3.5v-27h0.2c4.8,0.3,8.5,4.3,8.5,9.2v0.8c2.2,0.6,6,2.7,9.6,4.9
	c4.3,2.5,5.8,8,3.3,12.3C384.4,142.8,378.9,144.3,374.6,141.8L374.6,141.8z"/>
<path class="st9" d="M391.4,180.5c-1.7,9.6-8.3,17.5-17.4,20.9v1.4c0,4.8-3.9,8.8-8.7,8.9v-26.6c4.3-0.2,7.8-3.4,8.5-7.6
	c0.4-2.6,0-5.9-4.8-7.6c-1.2-0.4-2.5-0.9-3.7-1.4v-19.2c3,1.4,6.4,2.6,9.7,3.8C386.8,157.3,393.4,168.3,391.4,180.5z"/>
</svg>
