<?xml version="1.0" encoding="utf-8"?>
<!-- Generator: Adobe Illustrator 23.0.6, SVG Export Plug-In . SVG Version: 6.00 Build 0)  -->
<svg version="1.1" id="Layer_1" xmlns="http://www.w3.org/2000/svg" xmlns:xlink="http://www.w3.org/1999/xlink" x="0px" y="0px"
	 viewBox="0 0 512 512" style="enable-background:new 0 0 512 512;" xml:space="preserve">
<style type="text/css">
	.st0{fill:#756E78;}
	.st1{fill:#FFDC65;}
	.st2{fill:url(#SVGID_1_);}
	.st3{fill:#FFB471;}
	.st4{fill:#FCEE56;}
	.st5{fill:#565656;}
	.st6{fill:#3A3A3A;}
</style>
<title>icon2</title>
<path class="st0" d="M256,148.6c-3.7,0-6.7-3-6.7-6.7V78.5c0-3.7,3-6.7,6.7-6.7c3.7,0,6.7,3,6.7,6.7v63.3
	C262.7,145.5,259.7,148.6,256,148.6L256,148.6z"/>
<path class="st0" d="M336.7,182c-3.7,0-6.7-3-6.7-6.7c0-1.8,0.7-3.5,2-4.7l26.3-26.3c2.6-2.6,6.9-2.6,9.5,0c2.6,2.6,2.6,6.9,0,9.5
	l0,0L341.5,180C340.2,181.3,338.5,182,336.7,182z"/>
<path class="st0" d="M175.3,182c-1.8,0-3.5-0.7-4.8-2l-26.3-26.3c-2.6-2.6-2.6-6.9,0-9.5s6.9-2.6,9.5,0l26.3,26.3
	c2.6,2.6,2.6,6.9,0,9.5C178.7,181.3,177,182,175.3,182z"/>
<path class="st0" d="M362.3,369c-1.8,0-3.5-0.7-4.8-2L332,341.5c-2.6-2.6-2.6-6.9,0-9.5s6.9-2.6,9.5,0l25.6,25.6
	c2.6,2.6,2.6,6.9-0.1,9.5C365.8,368.3,364.1,369,362.3,369z"/>
<path class="st0" d="M150.4,368.4c-3.7,0-6.7-3-6.7-6.7c0-1.8,0.7-3.5,2-4.8l24.9-24.9c2.6-2.6,6.9-2.6,9.5,0c2.6,2.6,2.6,6.9,0,9.5
	l-24.9,24.9C153.9,367.7,152.2,368.4,150.4,368.4L150.4,368.4z"/>
<path class="st0" d="M424.5,262.7h-54.4c-3.7,0-6.7-3-6.7-6.7c0-3.7,3-6.7,6.7-6.7l0,0h54.4c3.7,0,6.7,3,6.7,6.7
	C431.3,259.7,428.3,262.7,424.5,262.7z"/>
<path class="st0" d="M256,440.2c-3.7,0-6.7-3-6.7-6.7l0,0v-63.3c0-3.7,3-6.7,6.7-6.7c3.7,0,6.7,3,6.7,6.7l0,0v63.3
	C262.7,437.2,259.7,440.2,256,440.2C256,440.2,256,440.2,256,440.2z"/>
<path class="st0" d="M141.8,262.7H87.4c-3.7,0-6.7-3-6.7-6.7c0-3.7,3-6.7,6.7-6.7h54.4c3.7,0,6.7,3,6.7,6.7
	C148.5,259.7,145.5,262.7,141.8,262.7L141.8,262.7z"/>
<path class="st1" d="M256,225.2v111.1c-2.1,0-4.1-0.4-6.1-1.1h-0.1c0,0-0.1,0-0.1,0L187.9,312c-0.1,0-0.1-0.1-0.2-0.1
	c-6.9-2.7-11.4-9.3-11.4-16.7v-78.4c0-4,1.3-7.9,3.8-11L256,225.2z"/>
<linearGradient id="SVGID_1_" gradientUnits="userSpaceOnUse" x1="564.0028" y1="214.1264" x2="-144.0572" y2="289.7663" gradientTransform="matrix(1 0 0 -1 0 514)">
	<stop  offset="0" style="stop-color:#FCEE21"/>
	<stop  offset="0.5" style="stop-color:#F9BE1F"/>
	<stop  offset="1" style="stop-color:#F7931E"/>
</linearGradient>
<path class="st2" d="M335.7,216.8v78.4c0,7.4-4.5,14-11.4,16.7c-0.1,0-0.1,0.1-0.2,0.1l-61.8,23.2h-0.1c-2,0.7-4.1,1.1-6.2,1.1
	V225.2l76-19.4C334.4,208.9,335.8,212.8,335.7,216.8z"/>
<path class="st3" d="M332,205.8l-72.8,27.3c-2,0.8-4.3,0.8-6.3,0l-72.8-27.3c2-2.6,4.6-4.5,7.6-5.7c0.1,0,0.1-0.1,0.2-0.1l61.8-23.2
	c0,0,0.1,0,0.1,0c4-1.5,8.4-1.5,12.4,0c0,0,0.1,0,0.1,0l61.8,23.2c0.1,0,0.1,0.1,0.2,0.1C327.4,201.2,330,203.2,332,205.8z"/>
<circle class="st4" cx="256" cy="60.3" r="27.2"/>
<circle class="st5" cx="126.6" cy="385.4" r="39.9"/>
<path class="st6" d="M154.8,357.2c-2.2-2.2-4.6-4.1-7.3-5.7c11.6,18.7,5.8,43.3-13,54.9c-12.8,7.9-29.1,7.9-41.9,0
	c11.6,18.7,36.1,24.6,54.9,13s24.6-36.1,13-54.9C158.9,361.9,157,359.4,154.8,357.2z"/>
<circle class="st5" cx="385.4" cy="385.4" r="39.9"/>
<path class="st6" d="M413.6,357.2c-2.2-2.2-4.6-4.1-7.3-5.7c11.6,18.7,5.8,43.3-13,54.9c-12.8,7.9-29.1,7.9-41.9,0
	c11.6,18.7,36.1,24.6,54.9,13c18.7-11.6,24.6-36.1,13-54.9C417.7,361.9,415.8,359.4,413.6,357.2z"/>
<circle class="st5" cx="126.6" cy="126.6" r="39.9"/>
<path class="st6" d="M154.8,98.4c-2.2-2.2-4.6-4.1-7.3-5.7c11.6,18.7,5.8,43.3-13,54.9c-12.8,7.9-29.1,7.9-41.9,0
	c11.6,18.7,36.1,24.6,54.9,13c18.7-11.6,24.6-36.1,13-54.9C158.9,103,157,100.6,154.8,98.4z"/>
<circle class="st5" cx="385.4" cy="126.6" r="39.9"/>
<path class="st6" d="M413.6,98.4c-2.2-2.2-4.6-4.1-7.3-5.7c11.6,18.7,5.8,43.3-13,54.9c-12.8,7.9-29.1,7.9-41.9,0
	c11.6,18.7,36.1,24.6,54.9,13c18.7-11.6,24.6-36.1,13-54.9C417.7,103,415.8,100.6,413.6,98.4z"/>
<circle class="st4" cx="256" cy="451.7" r="27.2"/>
<circle class="st4" cx="451.7" cy="256" r="27.2"/>
<circle class="st4" cx="60.3" cy="256" r="27.2"/>
</svg>
