<svg id="Layer_1" data-name="Layer 1" xmlns="http://www.w3.org/2000/svg" xmlns:xlink="http://www.w3.org/1999/xlink" viewBox="0 0 512 512"><defs><style>.cls-1{fill:#fe9;}.cls-2{fill:#fc6;}.cls-3{fill:#ffa64d;}.cls-4{fill:#ffcc80;}.cls-5{fill:url(#linear-gradient);}.cls-6{fill:#deb26f;}.cls-7{fill:#9ddff6;}</style><linearGradient id="linear-gradient" x1="295.64" y1="-57.33" x2="-12.07" y2="469.2" gradientUnits="userSpaceOnUse"><stop offset="0" stop-color="#fcee21"/><stop offset="0.28" stop-color="#fceb21"/><stop offset="0.47" stop-color="#fbe221"/><stop offset="0.64" stop-color="#fad320"/><stop offset="0.8" stop-color="#f9bd1f"/><stop offset="0.94" stop-color="#f8a11e"/><stop offset="1" stop-color="#f7931e"/></linearGradient></defs><title>icon</title><path class="cls-1" d="M362.32,72.51a96.68,96.68,0,0,0,0,193.36L372,165.49Z"/><path class="cls-2" d="M459,169.2a96.79,96.79,0,0,1-96.68,96.67V72.51A96.79,96.79,0,0,1,459,169.2Z"/><path class="cls-2" d="M354.94,148.16c-.32,1.73.08,3.11.51,3.44a34.75,34.75,0,0,0,6.87,3.93l7.05,12.4-7.05,9.13c-7.1-2.65-14-5.72-19.19-9.76-6.5-5.09-9.48-13.85-7.8-22.83a25.74,25.74,0,0,1,16.79-19.83V123a10,10,0,0,1,10.2-10v30.2a8.45,8.45,0,0,0-3.55.18c-2.89.87-3.66,3.83-3.83,4.72Z"/><path class="cls-2" d="M361.8,195.6h.52l6.39,15.57-6.39,14.18h-.7a10.16,10.16,0,0,1-9.5-10.24V215c-4.87-.79-9.27-2.54-14.86-6.2a10,10,0,1,1,10.92-16.7C353.21,195.37,355,195.65,361.8,195.6Z"/><path class="cls-3" d="M372.71,147.17c-3.22-1.75-7.09-3.48-10.39-3.91v-30.2h.26a10.16,10.16,0,0,1,9.49,10.25v.86c2.45.71,6.69,3,10.72,5.51a10.1,10.1,0,0,1-10.08,17.49Z"/><path class="cls-3" d="M391.5,190.39a30.56,30.56,0,0,1-19.43,23.39v1.59a10,10,0,0,1-9.75,10V195.59a10.1,10.1,0,0,0,9.5-8.51c.48-2.85-.05-6.64-5.33-8.5-1.39-.49-2.78-1-4.17-1.52V155.53c3.36,1.54,7.19,3,10.82,4.24C386.41,164.46,393.79,176.76,391.5,190.39Z"/><path class="cls-4" d="M433.5,319.29c-35.5,0-106.5,44.93-142,44.93S216.06,337,216.06,337s47.8,8.88,75.44,8.88,35.5-9.43,35.5-22.19c0-31.06-52.77-35.89-79.45-40-26.22-14.57-53.91-23.64-97.29-27.31-.71,7-35.12,126.48-37,133.23,40.38,18.35,124,45,160.51,45,53.25,0,195.25-71,195.25-88.75s-17.75-26.63-35.5-26.63Z"/><path class="cls-5" d="M105.12,399.17H56.31A13.32,13.32,0,0,1,43,385.85V235a13.31,13.31,0,0,1,13.31-13.31c62.22,0,91.2,21.6,92.39,22.5a13.36,13.36,0,0,1,4.79,14.08L118,389.33A13.34,13.34,0,0,1,105.12,399.17Z"/><path class="cls-6" d="M433.5,319.29c-35.5,0-106.5,44.93-142,44.93S216.06,337,216.06,337L136.51,321,118,389.31a11.49,11.49,0,0,1-.78,2.13c41.68,18.27,121.2,43.23,156.54,43.23,53.25,0,195.25-71,195.25-88.75S451.25,319.29,433.5,319.29Z"/><path class="cls-7" d="M43,302.07v83.78a13.32,13.32,0,0,0,13.31,13.32h48.81a13.31,13.31,0,0,0,12.09-7.71,13.13,13.13,0,0,0,.78-2.13L136.51,321Z"/></svg>