<?xml version="1.0" encoding="utf-8"?>
<!-- Generator: Adobe Illustrator 23.0.6, SVG Export Plug-In . SVG Version: 6.00 Build 0)  -->
<svg version="1.1" id="Layer_1" xmlns="http://www.w3.org/2000/svg" xmlns:xlink="http://www.w3.org/1999/xlink" x="0px" y="0px"
	 viewBox="0 0 512 512" style="enable-background:new 0 0 512 512;" xml:space="preserve">
<style type="text/css">
	.st0{fill:#565656;}
	.st1{fill:#3A3A3A;}
	.st2{fill:#FFB471;}
	.st3{fill:#FFA64D;}
	.st4{fill:url(#SVGID_1_);}
	.st5{fill:#FFEEC0;}
	.st6{fill:#FFDC65;}
	.st7{fill:#FFC846;}
</style>
<title>icon2</title>
<path class="st0" d="M472,166.6V434c0,20.9-16.9,38-37.8,38c-0.1,0-0.1,0-0.2,0H78c-20.9,0-38-16.9-38-37.8c0-0.1,0-0.1,0-0.2V166.6
	l41.5-25.3h370.8L472,166.6z"/>
<path class="st1" d="M472,166.6V434c0,20.9-16.9,38-37.8,38c-0.1,0-0.1,0-0.2,0H256V141.2h196.3L472,166.6z"/>
<path class="st2" d="M472,78v88.6H166.6l-25.3-22.8V65.6L166.6,40H434c20.9,0,38,16.9,38,37.8C472,77.9,472,77.9,472,78z"/>
<path class="st3" d="M472,78v88.6H256V40h178c20.9,0,38,16.9,38,37.8C472,77.9,472,77.9,472,78z"/>
<linearGradient id="SVGID_1_" gradientUnits="userSpaceOnUse" x1="-369.4447" y1="770.767" x2="418.9953" y2="170.277" gradientTransform="matrix(1 0 0 -1 0 514)">
	<stop  offset="0" style="stop-color:#FCEE21"/>
	<stop  offset="0.5" style="stop-color:#F9BE1F"/>
	<stop  offset="1" style="stop-color:#F7931E"/>
</linearGradient>
<path class="st4" d="M166.6,166.6H40V78c0-21,17-38,38-38h88.6L166.6,166.6z"/>
<path class="st5" d="M331.9,115.9h-25.3c-7-0.2-12.5-6-12.3-13c0.2-6.7,5.6-12.1,12.3-12.3h25.3c7,0.2,12.5,6,12.3,13
	C344.1,110.4,338.7,115.8,331.9,115.9z"/>
<path class="st5" d="M268.7,103.3c0.1,6.9-5.5,12.6-12.4,12.7c-0.1,0-0.2,0-0.2,0h-25.3c-7,0.2-12.8-5.3-13-12.3
	c-0.2-7,5.3-12.8,12.3-13c0.2,0,0.5,0,0.7,0H256c6.9-0.1,12.6,5.5,12.7,12.4C268.7,103.1,268.7,103.2,268.7,103.3z"/>
<path class="st5" d="M256,115.9V90.6c7-0.2,12.8,5.3,13,12.3c0.2,7-5.3,12.8-12.3,13C256.5,115.9,256.2,115.9,256,115.9z"/>
<path class="st5" d="M408.7,115.9h-25.3c-7,0.2-12.8-5.3-13-12.3c-0.2-7,5.3-12.8,12.3-13c0.2,0,0.5,0,0.7,0h25.3
	c7-0.2,12.8,5.3,13,12.3c0.2,7-5.3,12.8-12.3,13C409.2,115.9,409,115.9,408.7,115.9z"/>
<path class="st6" d="M281.3,191.9h-178c-6.9-0.1-12.6,5.5-12.7,12.4c0,0.1,0,0.2,0,0.3v50.6c-0.1,6.9,5.5,12.6,12.4,12.6
	c0.1,0,0.2,0,0.2,0h178c6.9,0.1,12.6-5.4,12.7-12.4c0-0.1,0-0.2,0-0.3v-50.6c0.1-6.9-5.5-12.6-12.4-12.7
	C281.5,191.9,281.4,191.9,281.3,191.9z"/>
<path class="st7" d="M408.7,421.4h-76.8c-7,0-12.7-5.7-12.7-12.6c0,0,0,0,0,0V204.5c0-7,5.7-12.6,12.6-12.6c0,0,0,0,0,0h76.8
	c7,0,12.7,5.7,12.7,12.6c0,0,0,0,0,0v204.2C421.4,415.7,415.7,421.4,408.7,421.4C408.7,421.4,408.7,421.4,408.7,421.4z"/>
<path class="st6" d="M281.3,294h-178c-6.9-0.1-12.6,5.5-12.7,12.4c0,0.1,0,0.2,0,0.2v102.1c-0.1,6.9,5.5,12.6,12.4,12.6
	c0.1,0,0.2,0,0.3,0h178c6.9,0.1,12.6-5.4,12.7-12.4c0-0.1,0-0.2,0-0.3V306.6c0.1-6.9-5.5-12.6-12.4-12.6
	C281.5,294,281.4,294,281.3,294z"/>
<path class="st7" d="M294,204.5v50.6c0.1,6.9-5.5,12.6-12.4,12.7c-0.1,0-0.2,0-0.3,0H256v-75.9h25.3c6.9-0.1,12.6,5.4,12.7,12.4
	C294,204.3,294,204.4,294,204.5z"/>
<path class="st7" d="M294,306.6v102.1c0.1,6.9-5.5,12.6-12.4,12.7c-0.1,0-0.2,0-0.3,0H256V294h25.3c6.9-0.1,12.6,5.4,12.7,12.4
	C294,306.5,294,306.5,294,306.6z"/>
</svg>
