<svg xmlns="http://www.w3.org/2000/svg" xmlns:xlink="http://www.w3.org/1999/xlink" width="135" height="119" viewBox="0 0 135 119">
  <defs>
    <clipPath id="clip-icon_share">
      <rect width="135" height="119"/>
    </clipPath>
  </defs>
  <g id="icon_share" data-name="icon share" clip-path="url(#clip-icon_share)">
    <g id="share" transform="translate(0 0.236)">
      <g id="Group_216" data-name="Group 216" transform="translate(44.893 0)">
        <g id="Group_215" data-name="Group 215" transform="translate(0 0)">
          <path id="Path_2341" data-name="Path 2341" d="M259.082,64.442,225.2,30.726a5.109,5.109,0,0,0-8.714,3.62V49.651c-16.8,1.11-25.187,8.075-26.7,9.463-21.08,17.544-18.748,41.468-18.04,46.227.01.068.02.138.032.206l.681,3.916a5.108,5.108,0,0,0,9.413,1.754l2.042-3.4c11.16-18.561,24.952-21.549,32.574-21.575v15.879a5.111,5.111,0,0,0,8.732,3.6L259.1,71.666A5.109,5.109,0,0,0,259.082,64.442ZM226.7,89.741V81.515a5.106,5.106,0,0,0-4.295-5.044c-5.9-.948-24.45-2.091-40.473,16.61a40.414,40.414,0,0,1,14.479-26.192,3.2,3.2,0,0,0,.278-.249c.075-.07,7.694-6.922,24.39-6.922h.511A5.108,5.108,0,0,0,226.7,54.61V46.636L248.255,68.08Z" transform="translate(-171.297 -29.237)" fill="#fff"/>
        </g>
      </g>
      <g id="Group_218" data-name="Group 218" transform="translate(0 23.5)">
        <g id="Group_217" data-name="Group 217">
          <path id="Path_2342" data-name="Path 2342" d="M114.09,184.464a5.108,5.108,0,0,0-5.108,5.108v14.474H10.217V129.122H40.868a5.108,5.108,0,1,0,0-10.217H5.108A5.108,5.108,0,0,0,0,124.013v85.142a5.108,5.108,0,0,0,5.108,5.108H114.09a5.108,5.108,0,0,0,5.108-5.108V189.573A5.108,5.108,0,0,0,114.09,184.464Z" transform="translate(0 -118.905)" fill="#fff"/>
        </g>
      </g>
    </g>
  </g>
</svg>
