<svg xmlns="http://www.w3.org/2000/svg" xmlns:xlink="http://www.w3.org/1999/xlink" width="113" height="112" viewBox="0 0 113 112">
  <defs>
    <clipPath id="clip-conection">
      <rect width="113" height="112"/>
    </clipPath>
  </defs>
  <g id="conection" clip-path="url(#clip-conection)">
    <g id="url">
      <path id="Path_2343" data-name="Path 2343" d="M159.511,28.633c-13.18,13.637-10.3,36.268,4.794,46.294a1.268,1.268,0,0,0,1.587-.153,50.9,50.9,0,0,0,8.222-9.94,1.194,1.194,0,0,0-.468-1.672,15.35,15.35,0,0,1-5.884-6.058h0a14.771,14.771,0,0,1-1.253-10.089h0c.942-4.561,5.838-8.8,9.577-12.727l-.023-.008,14.011-14.3a14.371,14.371,0,0,1,20.41-.1,14.549,14.549,0,0,1,.209,20.513l-8.487,8.727a1.488,1.488,0,0,0-.336,1.526A40.165,40.165,0,0,1,203,70.336a.173.173,0,0,0,.293.156L221.35,52.056a30.283,30.283,0,1,0-43.26-42.39L159.584,28.556c-.025.026-.048.052-.072.077Z" transform="translate(-118.081 -0.588)" fill="#fdb636"/>
      <path id="Path_2344" data-name="Path 2344" d="M75.2,210.511v0l.034-.014a30.977,30.977,0,0,0,2.684-22.008l-.008.008-.009,0a30.4,30.4,0,0,0-12.255-17.481,1.675,1.675,0,0,0-1.858.086,29.393,29.393,0,0,0-8.127,9.812,1.36,1.36,0,0,0,.54,1.775,15.2,15.2,0,0,1,5.821,5.939h0a13.915,13.915,0,0,1,1.473,9.133h0c-.651,5-5.7,9.589-9.717,13.722l0,0c-3.056,3.125-10.825,11.045-13.936,14.223a14.506,14.506,0,0,1-20.722-20.3l8.512-8.754a1.487,1.487,0,0,0,.345-1.5,42.325,42.325,0,0,1-1.215-19.639.173.173,0,0,0-.294-.153L8.679,193.515a30.751,30.751,0,0,0,.22,43.046,30.372,30.372,0,0,0,42.825-.437C55.773,231.594,73.108,215.545,75.2,210.511Z" transform="translate(0 -133.575)" fill="#fdb636"/>
    </g>
  </g>
</svg>
