<svg id="Layer_1" data-name="Layer 1" xmlns="http://www.w3.org/2000/svg" xmlns:xlink="http://www.w3.org/1999/xlink" viewBox="0 0 541.77 462.82"><defs><style>.cls-1{fill:url(#radial-gradient);}.cls-2{fill:#fff;}.cls-3{fill:url(#linear-gradient);}.cls-4{fill:url(#linear-gradient-2);}.cls-5{fill:url(#linear-gradient-3);}.cls-6{fill:url(#linear-gradient-4);}.cls-7{fill:url(#linear-gradient-5);}.cls-8{fill:url(#linear-gradient-6);}.cls-9{fill:url(#linear-gradient-7);}.cls-10{fill:url(#linear-gradient-8);}</style><radialGradient id="radial-gradient" cx="-7419.23" cy="197.48" fx="-7439.69125890721" fy="150.22488509962722" r="279.86" gradientTransform="matrix(-1, 0, 0, 1, -7079.26, 0)" gradientUnits="userSpaceOnUse"><stop offset="0" stop-color="#f5cb11"/><stop offset="0.23" stop-color="#f4c912"/><stop offset="0.36" stop-color="#efc113"/><stop offset="0.46" stop-color="#e7b316"/><stop offset="0.54" stop-color="#dca01b"/><stop offset="0.62" stop-color="#ce8721"/><stop offset="0.69" stop-color="#bc6828"/><stop offset="0.7" stop-color="#bb6628"/></radialGradient><linearGradient id="linear-gradient" x1="353.23" y1="201.94" x2="299.52" y2="176.54" gradientTransform="matrix(1, 0, 0, 1, 0, 0)" xlink:href="#radial-gradient"/><linearGradient id="linear-gradient-2" x1="374.79" y1="140.7" x2="387.34" y2="140.7" gradientUnits="userSpaceOnUse"><stop offset="0" stop-color="#250e00"/><stop offset="0.24" stop-color="#291100"/><stop offset="0.48" stop-color="#361b00"/><stop offset="0.73" stop-color="#4a2b00"/><stop offset="0.99" stop-color="#674200"/><stop offset="1" stop-color="#694300"/></linearGradient><linearGradient id="linear-gradient-3" x1="337.69" y1="91.94" x2="356.6" y2="91.94" xlink:href="#linear-gradient-2"/><linearGradient id="linear-gradient-4" x1="158.13" y1="336.79" x2="379.41" y2="336.79" xlink:href="#linear-gradient-2"/><linearGradient id="linear-gradient-5" x1="146.75" y1="285.87" x2="193.9" y2="285.87" xlink:href="#linear-gradient-2"/><linearGradient id="linear-gradient-6" x1="100.39" y1="195.94" x2="282.34" y2="195.94" xlink:href="#linear-gradient-2"/><linearGradient id="linear-gradient-7" x1="195.69" y1="96.66" x2="337.69" y2="96.66" xlink:href="#linear-gradient-2"/><linearGradient id="linear-gradient-8" x1="186.17" y1="137.28" x2="261.56" y2="137.28" xlink:href="#linear-gradient-2"/></defs><title>logo</title><path class="cls-1" d="M399.27,57.41c-6.32,16.47-8.07,36.24-14.35,52.74a3.35,3.35,0,0,0,.28,2.49c1.51,2.68,3.37,5.18,4.76,7.92a33.66,33.66,0,0,1,2,27.28,52.81,52.81,0,0,1-10,16.78,2,2,0,0,0-.17,2.91,34.5,34.5,0,0,1,5.62,13.78c.48,2.63,1.24,4.86,3.84,6.52,7.55,4.8,14.86,10,22.31,14.95,4.1,2.74,8.21,5.48,12.46,8,3.77,2.22,7.81,4,11.6,6.18,7.57,4.36,14,10,16.82,18.52,1.6,4.75,2.24,9.82,3.28,14.76.17.83,0,1.69,1.23,1.93,3.2.64,3.85,1.45,3.87,4.74,0,5.56,0,11.12,0,16.68,0,4.45-1.84,7-6,8.61-.92.36-1.84.72-2.79,1a2.25,2.25,0,0,0-1.8,2.6c.26,5.52-.91,4.11,4.22,6.7.28.13.57.25.84.4,2.31,1.27,2.9,3,1.79,5.42-.67,1.45-1.38,2.89-2.1,4.32a5.64,5.64,0,0,1-6.68,3c-1.73-.47-3.41-1.13-5.16-1.47a2.71,2.71,0,0,0-2.23.57c-5.66,6.76-13.23,10.05-21.6,11.59a66.55,66.55,0,0,1-41-5.39c-6-2.82-11.92-6-17.9-8.92-3.44-1.7-7-3.26-10.9-3.29a54.39,54.39,0,0,0-26.12,6.63,1.8,1.8,0,0,0-1.08,2.53c1,2.9,1.93,5.86,3.05,8.73A77.79,77.79,0,0,0,343,341.73c8.28,8.84,18.24,15.35,29.1,20.42,10.56,4.94,21.35,9.4,32,14.09a16.91,16.91,0,0,1,1.87,1.22c-.91.23-1.31.37-1.71.42-5.87.81-11.77,1.44-17.61,2.46a221.6,221.6,0,0,0-33.9,8.43q-22.65,7.82-45.07,16.3a264.45,264.45,0,0,1-36.56,11.28,198.77,198.77,0,0,1-27.83,4c-21.75,1.6-42.92-.7-63.19-9.17a91.68,91.68,0,0,1-38.94-30.14c-12.19-16.37-18-35.14-20.1-55.17a161.55,161.55,0,0,1,.49-37.36,1.78,1.78,0,0,0-1.23-2.12,61.87,61.87,0,0,1-6.52-3.5c-7.77-4.91-14.32-11.33-21.12-17.43a6.64,6.64,0,0,1-.74-1.25l25.28-2.89C100.71,256.72,89,246,78.88,232.78a3.64,3.64,0,0,1,1.82-.24c2.2.33,4.38.79,6.58,1.06A40.72,40.72,0,0,0,105.39,232a33.47,33.47,0,0,0,17.44-13.47c6.29-9.38,12.26-19,18.1-28.64,7.65-12.65,15.59-25.08,25.75-35.91,1.55-1.65,3.15-3.23,4.82-4.94a9,9,0,0,0-.84-.47c-.45-.18-.92-.34-1.39-.5-10.73-3.53-17.5-10.68-19.38-21.92-1.08-6.44-1.63-13-2.4-19.46a5.84,5.84,0,0,1,.31-1.44c.76.56,1.3.93,1.81,1.35,1.82,1.48,3.6,3,5.44,4.46,5.81,4.53,12.18,7.61,19.76,7.06,7.19-.52,13.8-3.1,20.21-6.24.18-.09.26-.37.57-.83a8.46,8.46,0,0,1-1.1-.75,18.7,18.7,0,0,1-6-13.86A24,24,0,0,1,192.15,84c4.78-8.27,11.82-14.52,18.76-20.85a5.88,5.88,0,0,1,1.29-.58c-.07.86-.14,1.43-.17,2a50.88,50.88,0,0,0-.3,6.28c.35,5.11,3.05,7.47,8,7a58,58,0,0,0,8.37-1.49c9.26-2.35,18.46-5,27.74-7.2A133.14,133.14,0,0,1,295,65.62c9.26.55,18.26,2.46,26.56,6.74,3.92,2,7.57,4.58,11.49,7,.19-.35.48-.86.75-1.39a25.62,25.62,0,0,1,12-11.63c2.1-1,2.41-.75,2.95,1.56,1.89,8.16,5.45,15.2,13,19.6,2.37,1.38,2.3,1.49,4-.61,8.83-11,21.44-20.22,30.3-31.17"/><path d="M407.49,41.94c-6.33,16.48-16.29,51.71-22.57,68.21a3.35,3.35,0,0,0,.28,2.49c1.51,2.68,3.37,5.18,4.76,7.92a33.66,33.66,0,0,1,2,27.28,52.81,52.81,0,0,1-10,16.78,2,2,0,0,0-.17,2.91,34.5,34.5,0,0,1,5.62,13.78c.48,2.63,1.24,4.86,3.84,6.52,7.55,4.8,14.86,10,22.31,14.95,4.1,2.74,8.21,5.48,12.46,8,3.77,2.22,7.81,4,11.6,6.18,7.57,4.36,14,10,16.82,18.52,1.6,4.75,2.24,9.82,3.28,14.76.17.83,0,1.69,1.23,1.93,3.2.64,3.85,1.45,3.87,4.74,0,5.56,0,11.12,0,16.68,0,4.45-1.84,7-6,8.61-.92.36-1.84.72-2.79,1a2.25,2.25,0,0,0-1.8,2.6c.26,5.52-.91,4.11,4.22,6.7.28.13.57.25.84.4,2.31,1.27,2.9,3,1.79,5.42-.67,1.45-1.38,2.89-2.1,4.32a5.64,5.64,0,0,1-6.68,3c-1.73-.47-3.41-1.13-5.16-1.47a2.71,2.71,0,0,0-2.23.57c-5.66,6.76-13.23,10.05-21.6,11.59a66.55,66.55,0,0,1-41-5.39c-6-2.82-11.92-6-17.9-8.92-3.44-1.7-7-3.26-10.9-3.29a54.39,54.39,0,0,0-26.12,6.63,1.8,1.8,0,0,0-1.08,2.53c1,2.9,1.93,5.86,3.05,8.73A77.79,77.79,0,0,0,343,341.73c8.28,8.84,18.24,15.35,29.1,20.42,10.56,4.94,21.35,9.4,32,14.09a16.91,16.91,0,0,1,1.87,1.22c-.91.23-1.31.37-1.71.42-5.87.81-11.77,1.44-17.61,2.46a221.6,221.6,0,0,0-33.9,8.43q-22.65,7.82-45.07,16.3a264.45,264.45,0,0,1-36.56,11.28,198.77,198.77,0,0,1-27.83,4c-21.75,1.6-42.92-.7-63.19-9.17a91.68,91.68,0,0,1-38.94-30.14c-12.19-16.37-18-35.14-20.1-55.17a161.55,161.55,0,0,1,.49-37.36,1.78,1.78,0,0,0-1.23-2.12,61.87,61.87,0,0,1-6.52-3.5c-7.77-4.91-14.32-11.33-21.12-17.43a6.64,6.64,0,0,1-.74-1.25l25.28-2.89C100.71,256.72,89,246,78.88,232.78a3.64,3.64,0,0,1,1.82-.24c2.2.33,4.38.79,6.58,1.06A40.72,40.72,0,0,0,105.39,232a33.47,33.47,0,0,0,17.44-13.47c6.29-9.38,12.26-19,18.1-28.64,7.65-12.65,15.59-25.08,25.75-35.91,1.55-1.65,3.15-3.23,4.82-4.94a9,9,0,0,0-.84-.47c-.45-.18-.92-.34-1.39-.5-10.73-3.53-17.5-10.68-19.38-21.92-1.08-6.44-1.63-13-2.4-19.46a5.84,5.84,0,0,1,.31-1.44c.76.56,1.3.93,1.81,1.35,1.82,1.48,3.6,3,5.44,4.46,5.81,4.53,12.18,7.61,19.76,7.06,7.19-.52,13.8-3.1,20.21-6.24.18-.09.26-.37.57-.83a8.46,8.46,0,0,1-1.1-.75,18.7,18.7,0,0,1-6-13.86A24,24,0,0,1,192.15,84c4.78-8.27,11.82-14.52,18.76-20.85a5.88,5.88,0,0,1,1.29-.58c-.07.86-.14,1.43-.17,2a50.88,50.88,0,0,0-.3,6.28c.35,5.11,3.05,7.47,8,7a58,58,0,0,0,8.37-1.49c9.26-2.35,18.46-5,27.74-7.2A133.48,133.48,0,0,1,295,65.62c9.26.55,18.26,2.46,26.56,6.74,3.92,2,7.57,4.58,11.49,7,.19-.35.48-.86.75-1.39a25.62,25.62,0,0,1,12-11.63c2.1-1,2.41-.75,2.95,1.56,1.89,8.16,5.45,15.2,13,19.6,2.37,1.38,2.3,1.49,4-.61,8.83-11,30.14-34,39-44.94M367.9,164.37a6.74,6.74,0,0,0-1.75-1.35,3.58,3.58,0,0,0-1.82.11c-.46.1-.87.42-1.33.54-16.63,4.18-29.91-.69-39.31-16.48-.91-1.52-1.62-3.16-2.54-4.68a3.29,3.29,0,0,0-1.44-1.08c-2.86-1.3-5.71-2.64-8.63-3.79a4.74,4.74,0,0,1-2.91-3,84.64,84.64,0,0,0-25.81-35.55A54.82,54.82,0,0,0,269.57,91c0,.56-.13,1,0,1.3,4.34,9.61,8.51,19.31,13.14,28.78,2.95,6,7,11.36,13.15,14.67,1.48.81,3.09,1.39,4.89,2.19-3.55.64-6.81,1.16-10,1.8a104,104,0,0,0-42.79,18.92c-18.6,14-31.16,32.28-38.75,54.13a127.45,127.45,0,0,0-6.45,57c2.6,22.86,10.57,43.57,25.79,61.12a95.24,95.24,0,0,0,46.25,29.37c3.31,1,6.68,1.71,10,2.54a15.54,15.54,0,0,0,1.79.2c-17.91-19.78-31.25-41.59-37.57-67.37,19.53,28,44.4,49.05,76.57,60.86L326,356c-1.71-1.9-3.44-3.79-5.13-5.71-9-10.18-16.49-21.27-20.75-34.31-1.1-3.39-1.77-6.92-2.77-10.35a3.22,3.22,0,0,0-1.48-1.86,87.43,87.43,0,0,1-32.52-24.87c-8.86-11-14.56-23.28-15.76-37.48-1.15-13.49,2.23-25.82,9.4-37.19a4.94,4.94,0,0,1,1.85-1.77c-.24,1.38-.41,2.77-.72,4.13A95.27,95.27,0,0,0,256,228.26c0,10.82,2.16,21.13,7.57,30.56a47.32,47.32,0,0,0,31.23,23.42c17.54,4.15,33.82.54,49-8.73,4-2.44,7.55-5.55,11.3-8.37a7.78,7.78,0,0,0,.9-1.08c-9.37-5.2-15.1-12.85-16-23.62a22.54,22.54,0,0,1,1.43-10.62c.88,2.08,1.54,3.82,2.32,5.5,3.34,7.12,9.23,11,16.76,11.9,5.79.73,11.69.54,17.54.8,4.74.21,9.5.26,14.2.82,1.89.22,3.69,1.54,5.42,2.56.56.33.75,1.28,1.12,1.94a8.6,8.6,0,0,1-2,.68c-4.43.33-8.87.59-13.31.89-.29,0-.57.11-1.33.25a19.57,19.57,0,0,0,1.91,1.5,160.85,160.85,0,0,0,37.24,16.68c7.46,2.18,15,3.65,22.81,2.83a38.07,38.07,0,0,0,8.16-2.2,3.16,3.16,0,0,0,1.43-2.23,34.51,34.51,0,0,0,.06-4.95c-4.58,2.44-8.9,4-13.85,3.12,1-.57,2.08-1.07,3-1.71a28.92,28.92,0,0,0,3.55-2.64,7.5,7.5,0,0,0,2.55-6.08c-.14-6.42-.1-12.85-2.39-19-2.17-5.82-6-10.46-10.34-14.73a3.09,3.09,0,0,0-.77-.5c-.09-.05-.23,0-.67,0,.64,4.92,1.28,9.8,1.92,14.67l-.41.16c-1.24-2-2.49-4-3.71-6.09-2.24-3.77-4.43-7.56-6.73-11.29a7.59,7.59,0,0,0-2.12-2.25q-28.8-19.58-57.63-39.08a8.46,8.46,0,0,1-2.17-2l14.09,1.84A29.43,29.43,0,0,0,367.9,164.37ZM122.15,273a69.68,69.68,0,0,0,21.34,1.68c11.37-1,21.37-7.37,26.37-19.9-6.75,7.83-14.52,12.69-24.49,13.28l-.23-.44c1.34-.7,2.7-1.34,4-2.09,6.39-3.69,10.93-9.26,14.81-15.31,5.56-8.68,10.78-17.58,16.15-26.38,5.92-9.71,12.09-19.25,20-27.52,2.34-2.45,4.9-4.69,7.37-7l1.58-1.46-.25-.45c-2.38,1.15-4.8,2.23-7.14,3.48-13.18,7-22.56,17.81-30,30.5-4.68,8-9.2,16.09-14.18,23.88-6.05,9.48-14.1,16.93-24.73,21-4.91,1.88-10.17,2.88-15.27,4.28l-1.66.44v.53C117.92,272,120,272.48,122.15,273Zm252.17.71c-.11,1.53,1.19,1.65,2.3,1.86,5.13,1,10.26,2,15.39,3.46-.5.07-1,.16-1.48.2-4.43.35-8.87.66-13.3,1.05-2.16.19-2.44.51-1.69,2.57a60.46,60.46,0,0,0,2.83,6c.58,1.18,1.48,1.38,2.77,1.13a184.21,184.21,0,0,1,34-3.61,171.49,171.49,0,0,1,26.39,1.93c1.61.24,2.09-.37,1.88-2-.17-1.3-1.11-1-1.95-1.13-4.78-.45-9.59-.69-14.33-1.43-8-1.26-15.63-4-23.12-7a168.44,168.44,0,0,1-26.91-13.92c-.35-.22-.75-.37-1.74-.87C375,266.12,374.6,269.89,374.32,273.67ZM264.75,119.39c-4.29-7.87-25-11.9-32.2-10.58-11.72,2.14-22.28,7.5-33.24,11.77-6.2,2.41-12.41,4.86-18.78,6.74a32,32,0,0,1-19.53-.07c-1.65-.55-3.2-1.43-5.05-2.27a7.2,7.2,0,0,0,.31,1.22c3.2,6.92,9.36,9.81,17.11,8.32,7-1.35,13.45-4,20-6.62,9-3.63,17.91-7.33,27-10.47a37.59,37.59,0,0,1,17.9-1.91c5.74.87,24,6.64,27.93,11a19.28,19.28,0,0,1,1.52,2.25l.89-.6C267.35,125.25,266.28,122.2,264.75,119.39Zm90.18-2.18A27.28,27.28,0,0,0,368.38,126a1.59,1.59,0,0,0,1.41-.52q3-7.45,5.84-15A1.69,1.69,0,0,0,375,109c-2.79-2-5.62-4-8.51-5.87a1.9,1.9,0,0,0-1.8.08c-3.37,4-6.66,8.11-9.95,12.19a5.84,5.84,0,0,0-.46.83A10.28,10.28,0,0,0,354.93,117.21Zm-.2,42.18q4.62-11.38,8.93-22.89a2.6,2.6,0,0,0-1-2.17c-4.27-3.08-8.59-6.1-13-9a2.86,2.86,0,0,0-2.74.13c-5.16,6.14-10.18,12.39-15.22,18.63a8.69,8.69,0,0,0-.69,1.26S338.62,162.06,354.73,159.39Zm80.49,138.12c-5.32-2.49-28.11-2.58-38.1-.09C406,306,427.87,306,435.22,297.51ZM378.38,86c-2.67,3.31-5.27,6.67-8,9.93-1,1.14-.86,1.94.23,2.76,1.72,1.29,3.47,2.54,5.21,3.81,1.22.89,1.92.56,2.44-.84,2.21-5.88,4.49-11.74,6.74-17.6,1.36-3.55,2.74-7.09,4.11-10.64l-.39-.19Q383.54,79.6,378.38,86ZM360.07,277.91c-.26,5.41,3.78,11,9.78,13.16-3.63-9.85-3.45-19.84-2.69-29.94C363.54,266.26,360.38,271.55,360.07,277.91Z"/><path class="cls-2" d="M375.38,261.9c-.39,4.22-.78,8-1.06,11.77-.11,1.53,1.19,1.65,2.3,1.86,5.13,1,10.26,2,15.39,3.46-.5.07-1,.16-1.48.2-4.43.35-8.87.66-13.3,1.05-2.16.19-2.44.51-1.69,2.57a60.46,60.46,0,0,0,2.83,6c.58,1.18,1.48,1.38,2.77,1.13a184.21,184.21,0,0,1,34-3.61,171.49,171.49,0,0,1,26.39,1.93c1.61.24,2.09-.37,1.88-2-.17-1.3-1.11-1-1.95-1.13-4.78-.45-9.59-.69-14.33-1.43-8-1.26-15.63-4-23.12-7a168.44,168.44,0,0,1-26.91-13.92C376.77,262.55,376.37,262.4,375.38,261.9Z"/><path d="M294.42,176.32c5.78-6.8,12.76-10.22,20.92-5.28,4.4,2.67,8.26,6.2,12.45,9.24,3.38,2.46,6.78,4.92,10.36,7.06a3.65,3.65,0,0,0,5.26-2.38,27.62,27.62,0,0,0,.44-5.63,14.84,14.84,0,0,0-.36-2.45,7.41,7.41,0,0,1,1,.73A27.05,27.05,0,0,1,350,188c.52,2,.87,4.27-.77,6-1.16,1.22-.59,1.84.37,2.65q6.42,5.46,12.79,11c1.12,1,2.18,2,3.27,3a1.42,1.42,0,0,1-1.23,0c-9.38-4.38-18.75-8.79-28.16-13.11a4.73,4.73,0,0,0-3-.25,37.09,37.09,0,0,1-12.27,1.32,13.45,13.45,0,0,1-11.12-6.65,31.8,31.8,0,0,1-4.32-11.92c-.74-4.14-1.93-5.07-6.12-4.47a29,29,0,0,0-3.73,1c-.44.13-.87.28-1.38.44C294.4,176.55,294.36,176.39,294.42,176.32Zm21.44,13.08c3.36,3.94,7.88,3.42,12.34,2.82a24.06,24.06,0,0,0,2.84-.71c-.73-2.28-17-15-19.75-15.3C312,181,312.7,185.67,315.86,189.4Z"/><path d="M389.33,228.85c1.29-2.81,3.17-3.55,5.83-1.86,3.16,2,6,4.43,9,6.68.45.34.88.72,1.58,1.28a3.77,3.77,0,0,0,0-1.1c-2.58-5.63-5.5-11-10.46-15a16.17,16.17,0,0,0-4-2.2,5,5,0,0,0-5.68.88c-1.78,1.67-1.66,3.81-1,5.85A10.52,10.52,0,0,0,389.33,228.85Z"/><path class="cls-3" d="M311.29,176.21c.71,4.83,1.41,9.46,4.57,13.19,3.36,3.94,7.88,3.42,12.34,2.82a24.06,24.06,0,0,0,2.84-.71C330.31,189.23,314.05,176.47,311.29,176.21Z"/><path class="cls-4" d="M381.41,119.39s15.46,16.53-3.54,42.62c0,0-5.06-15.78-2.21-25.45S381.41,119.39,381.41,119.39Z"/><path class="cls-5" d="M345,71.16s-1.35,20.07,11.6,27.06l-13.21,14.5S329.54,91.13,345,71.16Z"/><path class="cls-6" d="M183.27,274.86S54.6,467,379.41,372.72C379.41,372.72,154.46,406.07,183.27,274.86Z"/><path class="cls-7" d="M193.9,235s-48.57,45.63-47.12,101.84C146.78,336.79,151.13,290,193.9,235Z"/><path class="cls-8" d="M282.34,134.64s-119.61,7-150.78,96.46c0,0-8.21,16.69-31.17,10.41,0,0,29.24,41.56,57.74-10.41C158.13,231.1,179.76,159.14,282.34,134.64Z"/><path class="cls-9" d="M337.69,119.39S312.79,43.18,230,88.1c0,0-38.67,21.78-22.23-14.17,0,0-22.68,20.75-5.86,35.25s56.9-34.57,72.47-6.2l-4.78-10.7,0-1.3a67.47,67.47,0,0,1,23.92,19S308.78,93.2,337.69,119.39Z"/><path class="cls-10" d="M261.56,129.63s-33.85-28.68-75.39,23.2C186.17,152.83,213.23,116.59,261.56,129.63Z"/></svg>