<svg id="Capa_1" enable-background="new 0 0 512 512" height="512" viewBox="0 0 512 512" width="512" xmlns="http://www.w3.org/2000/svg"><g><g><path d="m358.254 265.033-64.595-13.68c-16.294-3.451-30.214 12.031-25.055 27.868l20.451 62.781c5.159 15.837 25.526 20.15 36.662 7.764l44.145-49.101c11.135-12.385 4.686-32.181-11.608-35.632z" fill="#f4dd45"/><path d="m321.666 286.631c23.973 73.596-5.229 151.728-66.457 192.829-12.69 8.515-26.745 15.435-41.979 20.398-88.83 28.935-184.294-19.617-213.229-108.447 22.02 15.534 43.906 14.879 60.23 10.364-68.864-42.23-45.243-106.301-45.243-106.301l41.438 21.083c-26.808-39.121-2.969-59.748-2.969-59.748l47.465 35.06 62.642 46.263c-14.224-43.665 9.639-90.585 53.294-104.805 7.696-2.507 15.494-3.833 23.204-4.067.052-.006.098 0 .15-.005 35.939-1.059 69.753 21.455 81.454 57.376z" fill="#6bbef6"/><path d="m240.062 229.26c-38.674 1.515-73.82 69.157-49.477 120.651 0 0-5.802 11.584-27.021-11.78-14.224-43.665 9.639-90.585 53.294-104.805 7.696-2.506 15.494-3.832 23.204-4.066z" fill="#528ecb"/><path d="m255.209 479.464c-12.691 8.51-26.745 15.434-41.981 20.397-88.829 28.935-184.293-19.616-213.228-108.445 22.021 15.531 43.906 14.871 60.234 10.362-68.864-42.236-45.243-106.305-45.243-106.305l41.432 21.081c-26.804-39.121-2.972-59.747-2.972-59.747l47.472 35.06c-14.388 76.378 19.976 198.089 154.286 187.597z" fill="#528ecb"/><g fill="#404a4a"><path d="m291.089 282.154c-1.356-4.163-3.715-7.727-6.642-10.035-2.956-2.332-6.141-3.11-8.971-2.189-2.827.921-4.944 3.426-5.96 7.053-1.006 3.59-.813 7.859.543 12.022 2.437 7.48 8.024 12.597 13.245 12.597.802 0 1.596-.121 2.368-.372 2.827-.921 4.944-3.426 5.96-7.053 1.006-3.591.813-7.861-.543-12.023z"/><path d="m249.67 283.447c-2.957-2.333-6.144-3.11-8.971-2.189-5.798 1.888-8.228 10.445-5.417 19.075 2.437 7.481 8.024 12.598 13.245 12.597.802 0 1.596-.121 2.368-.372 2.827-.921 4.944-3.426 5.96-7.053 1.005-3.59.812-7.859-.544-12.022s-3.714-7.727-6.641-10.036z"/></g></g><path d="m279.478 162.124c1.27 11.581 10.65 20.629 22.274 21.442.961.068 1.917.136 2.872.197 7.088.481 12.598 6.367 12.598 13.473v26.86c0 9.035 10.342 14.163 17.528 8.69 13.115-9.991 30.564-24.85 41.269-40.259 2.533-3.649 6.718-5.775 11.162-5.75 32.961.166 65.922-.894 98.884-3.211 9.189-.641 16.992-6.416 20.468-14.539.924-2.132 1.541-4.438 1.806-6.847 4.881-44.591 4.881-89.189 0-133.786-1.27-11.569-10.656-20.573-22.262-21.387-49.103-3.445-98.2-4.136-147.296-2.071-12.339.512-24.684 1.202-37.023 2.071-11.612.813-21.005 9.818-22.274 21.387-4.881 44.578-4.881 89.151-.006 133.73z" fill="#dfeaef"/><g fill="#528ecb"><path d="m470.714 48.182h-153.606c-4.271 0-7.733-3.462-7.733-7.733s3.462-7.733 7.733-7.733h153.606c4.271 0 7.733 3.462 7.733 7.733s-3.462 7.733-7.733 7.733z"/><path d="m470.714 79.726h-153.606c-4.271 0-7.733-3.462-7.733-7.733s3.462-7.733 7.733-7.733h153.606c4.271 0 7.733 3.462 7.733 7.733s-3.462 7.733-7.733 7.733z"/><path d="m403.511 111.27h-86.403c-4.271 0-7.733-3.462-7.733-7.733s3.462-7.733 7.733-7.733h86.403c4.271 0 7.733 3.462 7.733 7.733s-3.462 7.733-7.733 7.733z"/></g><g fill="#6bbef6"><path d="m466.268 278.657h-42.089c-4.271 0-7.733-3.462-7.733-7.733s3.462-7.733 7.733-7.733h42.089c4.271 0 7.733 3.462 7.733 7.733s-3.462 7.733-7.733 7.733z"/><g><path d="m445.363 322.637c-1.539 0-3.093-.458-4.446-1.411l-27.183-19.145c-3.491-2.459-4.329-7.283-1.869-10.775 2.459-3.492 7.284-4.328 10.775-1.87l27.183 19.145c3.491 2.459 4.329 7.283 1.869 10.775-1.506 2.138-3.899 3.281-6.329 3.281z"/><path d="m418.194 253.823c-2.431 0-4.823-1.143-6.329-3.281-2.459-3.492-1.622-8.316 1.869-10.775l27.183-19.145c3.493-2.459 8.316-1.622 10.775 1.87s1.622 8.316-1.869 10.775l-27.183 19.145c-1.354.953-2.908 1.411-4.446 1.411z"/></g></g></g></svg>